0 FILE Table and Chairs
0 Untitled Model
0 Name:  Table and Chairs
0 Author:  
1 69 -60.000000 -24.000000 -19.999990 0.000000 0.000000 1.000000 0.000000 -1.000000 0.000000 1.000000 0.000000 0.000000 4175.dat
1 69 -40.000000 -24.000000 -19.999990 0.000000 0.000000 1.000000 0.000000 -1.000000 0.000000 1.000000 0.000000 0.000000 3023.dat
1 69 -50.000000 0.000000 -30.000000 1.000000 0.000000 0.000000 0.000000 -1.000000 0.000000 0.000000 0.000000 -1.000000 4865b.dat
1 69 -49.999990 0.000004 -9.999990 -1.000000 0.000000 0.000000 0.000000 -1.000000 0.000000 0.000000 0.000000 1.000000 4865b.dat
1 2 -50.000000 -32.000000 -19.999990 0.000000 0.000000 -1.000000 0.000000 -1.000000 0.000000 -1.000000 0.000000 0.000000 11203.dat
1 69 59.999840 -24.000020 -20.000030 0.000000 0.000000 -0.999991 0.000000 -1.000000 0.000000 -0.999991 0.000000 0.000000 4175.dat
1 69 40.000060 -24.000020 -19.999990 0.000000 0.000000 -1.000000 0.000000 -1.000000 0.000000 -1.000000 0.000000 0.000000 3023.dat
1 69 50.000010 -0.000004 -9.999935 -1.000000 0.000000 0.000000 0.000000 -1.000000 0.000000 0.000000 0.000000 1.000000 4865b.dat
1 69 50.000000 0.000000 -30.000000 1.000000 0.000000 0.000000 0.000000 -1.000000 0.000000 0.000000 0.000000 -1.000000 4865b.dat
1 2 50.000010 -32.000020 -20.000010 0.000000 0.000000 1.000000 0.000000 -1.000000 0.000000 1.000000 0.000000 0.000000 11203.dat
1 1 0.000000 -48.000000 -20.000000 1.000000 0.000000 0.000000 0.000000 1.000000 0.000000 0.000000 0.000000 1.000000 3940.dat
1 1 0.000000 -56.000000 -20.000000 1.000000 0.000000 0.000000 0.000000 1.000000 0.000000 0.000000 0.000000 1.000000 11212.dat
1 69 -20.000000 -64.000000 0.000000 1.000000 0.000000 0.000000 0.000000 1.000000 0.000000 0.000000 0.000000 1.000000 3070b.dat
1 69 20.000000 -64.000000 -20.000000 1.000000 0.000000 0.000000 0.000000 1.000000 0.000000 0.000000 0.000000 1.000000 3070b.dat
1 69 -20.000000 -64.000000 -40.000000 1.000000 0.000000 0.000000 0.000000 1.000000 0.000000 0.000000 0.000000 1.000000 3070b.dat
1 69 10.000000 -64.000000 -40.000010 1.000000 0.000000 0.000000 0.000000 1.000000 0.000000 0.000000 0.000000 1.000000 3069b.dat
1 69 -10.000000 -64.000000 -20.000000 1.000000 0.000000 0.000000 0.000000 1.000000 0.000000 0.000000 0.000000 1.000000 3069b.dat
1 69 10.000000 -64.000000 0.000000 1.000000 0.000000 0.000000 0.000000 1.000000 0.000000 0.000000 0.000000 1.000000 3069b.dat
0 NOFILE
0 FILE 4175.dat
0 Plate, Modified 1 x 2 with Ladder
0 Name:  4175
0 Author:  James Jessiman
1 -1 0.000000 4.000000 0.000000 -1.000000 0.000000 0.000000 0.000000 -1.000000 0.000000 0.000000 0.000000 1.000000 stud3.dat
2 -2 20.000 8.000 10.000 -20.000 8.000 10.000
2 -2 -20.000 8.000 10.000 -20.000 8.000 -10.000
2 -2 -20.000 8.000 -10.000 -16.000 8.000 -10.000
2 -2 -16.000 8.000 -10.000 -16.000 8.000 6.000
2 -2 -16.000 8.000 6.000 16.000 8.000 6.000
2 -2 16.000 8.000 6.000 16.000 8.000 -10.000
2 -2 16.000 8.000 -10.000 20.000 8.000 -10.000
2 -2 20.000 8.000 -10.000 20.000 8.000 10.000
1 -1 -10.000000 4.000000 -8.000000 2.000000 0.000000 0.000000 0.000000 4.000000 0.000000 0.000000 0.000000 2.000000 box4-1.dat
1 -1 10.000000 4.000000 -8.000000 2.000000 0.000000 0.000000 0.000000 4.000000 0.000000 0.000000 0.000000 2.000000 box4-1.dat
2 -2 16.000 4.000 6.000 16.000 8.000 6.000
2 -2 16.000 4.000 -10.000 16.000 8.000 -10.000
2 -2 -16.000 4.000 6.000 -16.000 8.000 6.000
2 -2 -16.000 4.000 -10.000 -16.000 8.000 -10.000
2 -2 16.000 4.000 6.000 -16.000 4.000 6.000
2 -2 -16.000 4.000 6.000 -16.000 4.000 -10.000
2 -2 -16.000 4.000 -10.000 -12.000 4.000 -10.000
2 -2 -8.000 4.000 -10.000 8.000 4.000 -10.000
2 -2 12.000 4.000 -10.000 16.000 4.000 -10.000
2 -2 16.000 4.000 -10.000 16.000 4.000 6.000
2 -2 20.000 0.000 10.000 20.000 8.000 10.000
2 -2 20.000 8.000 -10.000 20.000 48.000 -10.000
2 -2 20.000 48.000 -10.000 20.000 48.000 -14.000
2 -2 20.000 48.000 -14.000 20.000 40.000 -14.000
2 -2 20.000 40.000 -14.000 20.000 40.000 -18.000
2 -2 20.000 40.000 -18.000 20.000 36.000 -18.000
2 -2 20.000 36.000 -18.000 20.000 36.000 -14.000
2 -2 20.000 36.000 -14.000 20.000 28.000 -14.000
2 -2 20.000 28.000 -14.000 20.000 28.000 -18.000
2 -2 20.000 28.000 -18.000 20.000 24.000 -18.000
2 -2 20.000 24.000 -18.000 20.000 24.000 -14.000
2 -2 20.000 24.000 -14.000 20.000 16.000 -14.000
2 -2 20.000 16.000 -14.000 20.000 16.000 -18.000
2 -2 20.000 16.000 -18.000 20.000 12.000 -18.000
2 -2 20.000 12.000 -18.000 20.000 12.000 -14.000
2 -2 20.000 12.000 -14.000 20.000 4.000 -14.000
2 -2 20.000 4.000 -14.000 20.000 4.000 -18.000
2 -2 20.000 4.000 -18.000 20.000 0.000 -18.000
2 -2 20.000 0.000 -18.000 20.000 0.000 10.000
2 -2 -20.000 0.000 10.000 -20.000 8.000 10.000
2 -2 -20.000 8.000 -10.000 -20.000 48.000 -10.000
2 -2 -20.000 48.000 -10.000 -20.000 48.000 -14.000
2 -2 -20.000 48.000 -14.000 -20.000 40.000 -14.000
2 -2 -20.000 40.000 -14.000 -20.000 40.000 -18.000
2 -2 -20.000 40.000 -18.000 -20.000 36.000 -18.000
2 -2 -20.000 36.000 -18.000 -20.000 36.000 -14.000
2 -2 -20.000 36.000 -14.000 -20.000 28.000 -14.000
2 -2 -20.000 28.000 -14.000 -20.000 28.000 -18.000
2 -2 -20.000 28.000 -18.000 -20.000 24.000 -18.000
2 -2 -20.000 24.000 -18.000 -20.000 24.000 -14.000
2 -2 -20.000 24.000 -14.000 -20.000 16.000 -14.000
2 -2 -20.000 16.000 -14.000 -20.000 16.000 -18.000
2 -2 -20.000 16.000 -18.000 -20.000 12.000 -18.000
2 -2 -20.000 12.000 -18.000 -20.000 12.000 -14.000
2 -2 -20.000 12.000 -14.000 -20.000 4.000 -14.000
2 -2 -20.000 4.000 -14.000 -20.000 4.000 -18.000
2 -2 -20.000 4.000 -18.000 -20.000 0.000 -18.000
2 -2 -20.000 0.000 -18.000 -20.000 0.000 10.000
2 -2 20.000 0.000 10.000 -20.000 0.000 10.000
2 -2 20.000 40.000 -18.000 -20.000 40.000 -18.000
2 -2 20.000 36.000 -18.000 -20.000 36.000 -18.000
2 -2 20.000 28.000 -18.000 -20.000 28.000 -18.000
2 -2 20.000 24.000 -18.000 -20.000 24.000 -18.000
2 -2 20.000 16.000 -18.000 -20.000 16.000 -18.000
2 -2 20.000 12.000 -18.000 -20.000 12.000 -18.000
2 -2 20.000 4.000 -18.000 -20.000 4.000 -18.000
2 -2 20.000 0.000 -18.000 -20.000 0.000 -18.000
2 -2 20.000 4.000 -14.000 16.000 4.000 -14.000
2 -2 16.000 4.000 -14.000 16.000 4.000 -12.000
2 -2 16.000 4.000 -12.000 -16.000 4.000 -12.000
2 -2 -16.000 4.000 -12.000 -16.000 4.000 -14.000
2 -2 -16.000 4.000 -14.000 -20.000 4.000 -14.000
2 -2 20.000 12.000 -14.000 16.000 12.000 -14.000
2 -2 16.000 12.000 -14.000 16.000 12.000 -12.000
2 -2 16.000 12.000 -12.000 -16.000 12.000 -12.000
2 -2 -16.000 12.000 -12.000 -16.000 12.000 -14.000
2 -2 -16.000 12.000 -14.000 -20.000 12.000 -14.000
2 -2 16.000 4.000 -14.000 16.000 12.000 -14.000
2 -2 16.000 4.000 -12.000 16.000 12.000 -12.000
2 -2 -16.000 4.000 -14.000 -16.000 12.000 -14.000
2 -2 -16.000 4.000 -12.000 -16.000 12.000 -12.000
2 -2 20.000 16.000 -14.000 16.000 16.000 -14.000
2 -2 16.000 16.000 -14.000 16.000 16.000 -10.000
2 -2 16.000 16.000 -10.000 -16.000 16.000 -10.000
2 -2 -16.000 16.000 -10.000 -16.000 16.000 -14.000
2 -2 -16.000 16.000 -14.000 -20.000 16.000 -14.000
2 -2 20.000 24.000 -14.000 16.000 24.000 -14.000
2 -2 16.000 24.000 -14.000 16.000 24.000 -10.000
2 -2 16.000 24.000 -10.000 -16.000 24.000 -10.000
2 -2 -16.000 24.000 -10.000 -16.000 24.000 -14.000
2 -2 -16.000 24.000 -14.000 -20.000 24.000 -14.000
2 -2 16.000 16.000 -14.000 16.000 24.000 -14.000
2 -2 16.000 16.000 -10.000 16.000 24.000 -10.000
2 -2 -16.000 16.000 -14.000 -16.000 24.000 -14.000
2 -2 -16.000 16.000 -10.000 -16.000 24.000 -10.000
2 -2 20.000 28.000 -14.000 16.000 28.000 -14.000
2 -2 16.000 28.000 -14.000 16.000 28.000 -10.000
2 -2 16.000 28.000 -10.000 -16.000 28.000 -10.000
2 -2 -16.000 28.000 -10.000 -16.000 28.000 -14.000
2 -2 -16.000 28.000 -14.000 -20.000 28.000 -14.000
2 -2 20.000 36.000 -14.000 16.000 36.000 -14.000
2 -2 16.000 36.000 -14.000 16.000 36.000 -10.000
2 -2 16.000 36.000 -10.000 -16.000 36.000 -10.000
2 -2 -16.000 36.000 -10.000 -16.000 36.000 -14.000
2 -2 -16.000 36.000 -14.000 -20.000 36.000 -14.000
2 -2 16.000 28.000 -14.000 16.000 36.000 -14.000
2 -2 16.000 28.000 -10.000 16.000 36.000 -10.000
2 -2 -16.000 28.000 -14.000 -16.000 36.000 -14.000
2 -2 -16.000 28.000 -10.000 -16.000 36.000 -10.000
2 -2 20.000 40.000 -14.000 16.000 40.000 -14.000
2 -2 16.000 40.000 -14.000 16.000 40.000 -10.000
2 -2 16.000 40.000 -10.000 -16.000 40.000 -10.000
2 -2 -16.000 40.000 -10.000 -16.000 40.000 -14.000
2 -2 -16.000 40.000 -14.000 -20.000 40.000 -14.000
2 -2 20.000 48.000 -14.000 16.000 48.000 -14.000
2 -2 16.000 48.000 -14.000 16.000 48.000 -10.000
2 -2 20.000 48.000 -10.000 16.000 48.000 -10.000
2 -2 -16.000 48.000 -10.000 -20.000 48.000 -10.000
2 -2 -16.000 48.000 -10.000 -16.000 48.000 -14.000
2 -2 -16.000 48.000 -14.000 -20.000 48.000 -14.000
2 -2 16.000 40.000 -14.000 16.000 48.000 -14.000
2 -2 16.000 40.000 -10.000 16.000 48.000 -10.000
2 -2 -16.000 40.000 -14.000 -16.000 48.000 -14.000
2 -2 -16.000 40.000 -10.000 -16.000 48.000 -10.000
4 -1 20.000 8.000 10.000 20.000 8.000 -10.000 16.000 8.000 -10.000 16.000 8.000 6.000
4 -1 -16.000 8.000 -10.000 -20.000 8.000 -10.000 -20.000 8.000 10.000 -16.000 8.000 6.000
4 -1 20.000 8.000 10.000 16.000 8.000 6.000 -16.000 8.000 6.000 -20.000 8.000 10.000
4 -1 16.000 4.000 6.000 16.000 4.000 -10.000 -16.000 4.000 -10.000 -16.000 4.000 6.000
4 -1 16.000 8.000 6.000 16.000 4.000 6.000 -16.000 4.000 6.000 -16.000 8.000 6.000
4 -1 16.000 4.000 -10.000 16.000 4.000 6.000 16.000 8.000 6.000 16.000 8.000 -10.000
4 -1 -16.000 8.000 6.000 -16.000 4.000 6.000 -16.000 4.000 -10.000 -16.000 8.000 -10.000
4 -1 16.000 4.000 -12.000 16.000 4.000 -14.000 -16.000 4.000 -14.000 -16.000 4.000 -12.000
4 -1 -16.000 12.000 -14.000 16.000 12.000 -14.000 16.000 12.000 -12.000 -16.000 12.000 -12.000
4 -1 16.000 16.000 -10.000 16.000 16.000 -14.000 -16.000 16.000 -14.000 -16.000 16.000 -10.000
4 -1 -16.000 24.000 -14.000 16.000 24.000 -14.000 16.000 24.000 -10.000 -16.000 24.000 -10.000
4 -1 16.000 28.000 -10.000 16.000 28.000 -14.000 -16.000 28.000 -14.000 -16.000 28.000 -10.000
4 -1 -16.000 36.000 -14.000 16.000 36.000 -14.000 16.000 36.000 -10.000 -16.000 36.000 -10.000
4 -1 16.000 40.000 -10.000 16.000 40.000 -14.000 -16.000 40.000 -14.000 -16.000 40.000 -10.000
4 -1 20.000 4.000 -14.000 20.000 4.000 -18.000 -20.000 4.000 -18.000 -20.000 4.000 -14.000
4 -1 -20.000 12.000 -18.000 20.000 12.000 -18.000 20.000 12.000 -14.000 -20.000 12.000 -14.000
4 -1 20.000 16.000 -14.000 20.000 16.000 -18.000 -20.000 16.000 -18.000 -20.000 16.000 -14.000
4 -1 -20.000 24.000 -18.000 20.000 24.000 -18.000 20.000 24.000 -14.000 -20.000 24.000 -14.000
4 -1 20.000 28.000 -14.000 20.000 28.000 -18.000 -20.000 28.000 -18.000 -20.000 28.000 -14.000
4 -1 -20.000 36.000 -18.000 20.000 36.000 -18.000 20.000 36.000 -14.000 -20.000 36.000 -14.000
4 -1 20.000 40.000 -14.000 20.000 40.000 -18.000 -20.000 40.000 -18.000 -20.000 40.000 -14.000
4 -1 20.000 48.000 -10.000 20.000 48.000 -14.000 16.000 48.000 -14.000 16.000 48.000 -10.000
4 -1 -16.000 48.000 -14.000 -20.000 48.000 -14.000 -20.000 48.000 -10.000 -16.000 48.000 -10.000
4 -1 20.000 0.000 -14.000 20.000 48.000 -14.000 20.000 48.000 -10.000 20.000 0.000 -10.000
4 -1 -20.000 48.000 -10.000 -20.000 48.000 -14.000 -20.000 0.000 -14.000 -20.000 0.000 -10.000
4 -1 20.000 48.000 -10.000 16.000 48.000 -10.000 16.000 8.000 -10.000 20.000 8.000 -10.000
4 -1 -16.000 8.000 -10.000 -16.000 48.000 -10.000 -20.000 48.000 -10.000 -20.000 8.000 -10.000
4 -1 16.000 4.000 -14.000 16.000 12.000 -14.000 20.000 12.000 -14.000 20.000 4.000 -14.000
4 -1 -20.000 12.000 -14.000 -16.000 12.000 -14.000 -16.000 4.000 -14.000 -20.000 4.000 -14.000
4 -1 16.000 16.000 -14.000 16.000 24.000 -14.000 20.000 24.000 -14.000 20.000 16.000 -14.000
4 -1 -20.000 24.000 -14.000 -16.000 24.000 -14.000 -16.000 16.000 -14.000 -20.000 16.000 -14.000
4 -1 16.000 28.000 -14.000 16.000 36.000 -14.000 20.000 36.000 -14.000 20.000 28.000 -14.000
4 -1 -20.000 36.000 -14.000 -16.000 36.000 -14.000 -16.000 28.000 -14.000 -20.000 28.000 -14.000
4 -1 16.000 40.000 -14.000 16.000 48.000 -14.000 20.000 48.000 -14.000 20.000 40.000 -14.000
4 -1 -20.000 48.000 -14.000 -16.000 48.000 -14.000 -16.000 40.000 -14.000 -20.000 40.000 -14.000
4 -1 16.000 12.000 -12.000 16.000 12.000 -14.000 16.000 4.000 -14.000 16.000 4.000 -12.000
4 -1 -16.000 4.000 -14.000 -16.000 12.000 -14.000 -16.000 12.000 -12.000 -16.000 4.000 -12.000
4 -1 16.000 24.000 -10.000 16.000 24.000 -14.000 16.000 16.000 -14.000 16.000 16.000 -10.000
4 -1 -16.000 16.000 -14.000 -16.000 24.000 -14.000 -16.000 24.000 -10.000 -16.000 16.000 -10.000
4 -1 16.000 36.000 -10.000 16.000 36.000 -14.000 16.000 28.000 -14.000 16.000 28.000 -10.000
4 -1 -16.000 28.000 -14.000 -16.000 36.000 -14.000 -16.000 36.000 -10.000 -16.000 28.000 -10.000
4 -1 16.000 48.000 -10.000 16.000 48.000 -14.000 16.000 40.000 -14.000 16.000 40.000 -10.000
4 -1 -16.000 40.000 -14.000 -16.000 48.000 -14.000 -16.000 48.000 -10.000 -16.000 40.000 -10.000
4 -1 20.000 0.000 -14.000 20.000 0.000 -18.000 20.000 4.000 -18.000 20.000 4.000 -14.000
4 -1 -20.000 4.000 -18.000 -20.000 0.000 -18.000 -20.000 0.000 -14.000 -20.000 4.000 -14.000
4 -1 20.000 12.000 -14.000 20.000 12.000 -18.000 20.000 16.000 -18.000 20.000 16.000 -14.000
4 -1 -20.000 16.000 -18.000 -20.000 12.000 -18.000 -20.000 12.000 -14.000 -20.000 16.000 -14.000
4 -1 20.000 24.000 -14.000 20.000 24.000 -18.000 20.000 28.000 -18.000 20.000 28.000 -14.000
4 -1 -20.000 28.000 -18.000 -20.000 24.000 -18.000 -20.000 24.000 -14.000 -20.000 28.000 -14.000
4 -1 20.000 36.000 -14.000 20.000 36.000 -18.000 20.000 40.000 -18.000 20.000 40.000 -14.000
4 -1 -20.000 40.000 -18.000 -20.000 36.000 -18.000 -20.000 36.000 -14.000 -20.000 40.000 -14.000
4 -1 20.000 0.000 -18.000 -20.000 0.000 -18.000 -20.000 4.000 -18.000 20.000 4.000 -18.000
4 -1 20.000 12.000 -18.000 -20.000 12.000 -18.000 -20.000 16.000 -18.000 20.000 16.000 -18.000
4 -1 20.000 24.000 -18.000 -20.000 24.000 -18.000 -20.000 28.000 -18.000 20.000 28.000 -18.000
4 -1 20.000 36.000 -18.000 -20.000 36.000 -18.000 -20.000 40.000 -18.000 20.000 40.000 -18.000
4 -1 -16.000 16.000 -10.000 -16.000 4.000 -10.000 16.000 4.000 -10.000 16.000 16.000 -10.000
4 -1 -16.000 28.000 -10.000 -16.000 24.000 -10.000 16.000 24.000 -10.000 16.000 28.000 -10.000
4 -1 -16.000 40.000 -10.000 -16.000 36.000 -10.000 16.000 36.000 -10.000 16.000 40.000 -10.000
4 -1 -16.000 12.000 -12.000 16.000 12.000 -12.000 16.000 4.000 -12.000 -16.000 4.000 -12.000
4 -1 -20.000 0.000 10.000 20.000 0.000 10.000 20.000 8.000 10.000 -20.000 8.000 10.000
4 -1 -20.000 0.000 -18.000 20.000 0.000 -18.000 20.000 0.000 10.000 -20.000 0.000 10.000
4 -1 20.000 8.000 -10.000 20.000 8.000 10.000 20.000 0.000 10.000 20.000 0.000 -10.000
4 -1 -20.000 0.000 10.000 -20.000 8.000 10.000 -20.000 8.000 -10.000 -20.000 0.000 -10.000
1 -1 10.000000 0.000000 0.000000 1.000000 0.000000 0.000000 0.000000 1.000000 0.000000 0.000000 0.000000 1.000000 stud.dat
1 -1 -10.000000 0.000000 0.000000 1.000000 0.000000 0.000000 0.000000 1.000000 0.000000 0.000000 0.000000 1.000000 stud.dat
0 NOFILE
0 FILE 3023.dat
0 Plate 1 x 2
0 Name:  3023
0 Author:  James Jessiman
1 -1 0.000000 4.000000 0.000000 1.000000 0.000000 0.000000 0.000000 -1.000000 0.000000 0.000000 0.000000 1.000000 stud3.dat
1 -1 0.000000 8.000000 0.000000 16.000000 0.000000 0.000000 0.000000 -4.000000 0.000000 0.000000 0.000000 6.000000 box5.dat
4 -1 20.000 8.000 10.000 16.000 8.000 6.000 -16.000 8.000 6.000 -20.000 8.000 10.000
4 -1 -20.000 8.000 10.000 -16.000 8.000 6.000 -16.000 8.000 -6.000 -20.000 8.000 -10.000
4 -1 -20.000 8.000 -10.000 -16.000 8.000 -6.000 16.000 8.000 -6.000 20.000 8.000 -10.000
4 -1 20.000 8.000 -10.000 16.000 8.000 -6.000 16.000 8.000 6.000 20.000 8.000 10.000
1 -1 0.000000 8.000000 0.000000 20.000000 0.000000 0.000000 0.000000 -8.000000 0.000000 0.000000 0.000000 10.000000 box5.dat
1 -1 10.000000 0.000000 0.000000 1.000000 0.000000 0.000000 0.000000 1.000000 0.000000 0.000000 0.000000 1.000000 stud.dat
1 -1 -10.000000 0.000000 0.000000 1.000000 0.000000 0.000000 0.000000 1.000000 0.000000 0.000000 0.000000 1.000000 stud.dat
0 NOFILE
0 FILE 4865b.dat
0 Panel 1 x 2 x 1 with Rounded Corners
0 Name:  4865b
0 Author:  Rolf Osterthun [Rolf]
1 -1 0.000000 20.000000 0.000000 1.000000 0.000000 0.000000 0.000000 -1.000000 0.000000 0.000000 0.000000 1.000000 stud3.dat
1 -1 0.000000 24.000000 0.000000 16.000000 0.000000 0.000000 0.000000 -4.000000 0.000000 0.000000 0.000000 6.000000 box5.dat
4 -1 20.000 24.000 10.000 16.000 24.000 6.000 -16.000 24.000 6.000 -20.000 24.000 10.000
4 -1 -20.000 24.000 10.000 -16.000 24.000 6.000 -16.000 24.000 -6.000 -20.000 24.000 -10.000
4 -1 -20.000 24.000 -10.000 -16.000 24.000 -6.000 16.000 24.000 -6.000 20.000 24.000 -10.000
4 -1 20.000 24.000 -10.000 16.000 24.000 -6.000 16.000 24.000 6.000 20.000 24.000 10.000
2 -2 20.000 24.000 10.000 -20.000 24.000 10.000
2 -2 -20.000 24.000 10.000 -20.000 24.000 -10.000
2 -2 20.000 24.000 -10.000 20.000 24.000 10.000
2 -2 20.000 2.000 6.000 20.000 16.000 6.000
2 -2 -20.000 2.000 6.000 -20.000 16.000 6.000
2 -2 20.000 2.000 10.000 20.000 24.000 10.000
2 -2 -20.000 2.000 10.000 -20.000 24.000 10.000
2 -2 18.000 0.000 10.000 -18.000 0.000 10.000
2 -2 -18.000 0.000 6.000 18.000 0.000 6.000
4 -1 -20.000 24.000 10.000 -20.000 24.000 -10.000 -20.000 16.000 -10.000 -20.000 16.000 6.000
4 -1 20.000 24.000 -10.000 20.000 24.000 10.000 20.000 16.000 6.000 20.000 16.000 -10.000
4 -1 -20.000 24.000 10.000 -20.000 16.000 6.000 -20.000 2.000 6.000 -20.000 2.000 10.000
4 -1 20.000 16.000 6.000 20.000 24.000 10.000 20.000 2.000 10.000 20.000 2.000 6.000
4 -1 20.000 24.000 10.000 -20.000 24.000 10.000 -18.000 2.000 10.000 18.000 2.000 10.000
4 -1 18.000 2.000 10.000 -18.000 2.000 10.000 -18.000 0.000 10.000 18.000 0.000 10.000
3 -1 20.000 24.000 10.000 18.000 2.000 10.000 20.000 2.000 10.000
3 -1 -20.000 24.000 10.000 -20.000 2.000 10.000 -18.000 2.000 10.000
4 -1 -20.000 16.000 6.000 20.000 16.000 6.000 18.000 2.000 6.000 -18.000 2.000 6.000
4 -1 -18.000 2.000 6.000 18.000 2.000 6.000 18.000 0.000 6.000 -18.000 0.000 6.000
3 -1 20.000 16.000 6.000 20.000 2.000 6.000 18.000 2.000 6.000
3 -1 -20.000 16.000 6.000 -18.000 2.000 6.000 -20.000 2.000 6.000
4 -1 18.000 0.000 6.000 18.000 0.000 10.000 -18.000 0.000 10.000 -18.000 0.000 6.000
1 -1 18.000000 2.000000 6.000000 2.000000 0.000000 0.000000 0.000000 0.000000 -2.000000 0.000000 2.000000 0.000000 1-4disc.dat
1 -1 18.000000 2.000000 10.000000 2.000000 0.000000 0.000000 0.000000 0.000000 -2.000000 0.000000 -2.000000 0.000000 1-4disc.dat
1 -1 -18.000000 2.000000 10.000000 -2.000000 0.000000 0.000000 0.000000 0.000000 -2.000000 0.000000 -2.000000 0.000000 1-4disc.dat
1 -1 -18.000000 2.000000 6.000000 -2.000000 0.000000 0.000000 0.000000 0.000000 -2.000000 0.000000 2.000000 0.000000 1-4disc.dat
1 -1 18.000000 2.000000 6.000000 2.000000 0.000000 0.000000 0.000000 0.000000 -2.000000 0.000000 4.000000 0.000000 1-4cylo.dat
1 -1 -18.000000 2.000000 10.000000 -2.000000 0.000000 0.000000 0.000000 0.000000 -2.000000 0.000000 -4.000000 0.000000 1-4cylo.dat
1 -1 0.000000 20.000000 -2.000000 -20.000000 0.000000 0.000000 0.000000 -4.000000 0.000000 0.000000 0.000000 -8.000000 box2-5.dat
0 NOFILE
0 FILE 11203.dat
0 Tile, Modified 2 x 2 Inverted
0 Name:  11203
0 Author:  Rolf Osterthun [Rolf]
1 -1 0.000000 0.000000 0.000000 1.000000 0.000000 0.000000 0.000000 1.000000 0.000000 0.000000 0.000000 1.000000 11203s01.dat
4 -1 -20.000 8.000 20.000 20.000 8.000 20.000 20.000 8.000 -20.000 -20.000 8.000 -20.000
0 NOFILE
0 FILE 3940.dat
0 Support 2 x 2 x 2 Stand with Undetermined Hole Type
0 Name:  3940
0 Author:  James Jessiman
2 -2 20.000 48.000 0.000 18.480 48.000 7.650
2 -2 18.480 48.000 7.650 16.000 48.000 11.360
2 -2 16.000 48.000 11.360 16.000 44.000 11.360
2 -2 16.000 44.000 11.360 14.140 44.000 14.140
2 -2 14.140 44.000 14.140 11.360 44.000 16.000
2 -2 11.360 44.000 16.000 11.360 48.000 16.000
2 -2 11.360 48.000 16.000 7.650 48.000 18.480
2 -2 7.650 48.000 18.480 0.000 48.000 20.000
2 -2 -20.000 48.000 0.000 -18.480 48.000 7.650
2 -2 -18.480 48.000 7.650 -16.000 48.000 11.360
2 -2 -16.000 48.000 11.360 -16.000 44.000 11.360
2 -2 -16.000 44.000 11.360 -14.140 44.000 14.140
2 -2 -14.140 44.000 14.140 -11.360 44.000 16.000
2 -2 -11.360 44.000 16.000 -11.360 48.000 16.000
2 -2 -11.360 48.000 16.000 -7.650 48.000 18.480
2 -2 -7.650 48.000 18.480 0.000 48.000 20.000
2 -2 20.000 48.000 0.000 18.480 48.000 -7.650
2 -2 18.480 48.000 -7.650 16.000 48.000 -11.360
2 -2 16.000 48.000 -11.360 16.000 44.000 -11.360
2 -2 16.000 44.000 -11.360 14.140 44.000 -14.140
2 -2 14.140 44.000 -14.140 11.360 44.000 -16.000
2 -2 11.360 44.000 -16.000 11.360 48.000 -16.000
2 -2 11.360 48.000 -16.000 7.650 48.000 -18.480
2 -2 7.650 48.000 -18.480 0.000 48.000 -20.000
2 -2 -20.000 48.000 0.000 -18.480 48.000 -7.650
2 -2 -18.480 48.000 -7.650 -16.000 48.000 -11.360
2 -2 -16.000 48.000 -11.360 -16.000 44.000 -11.360
2 -2 -16.000 44.000 -11.360 -14.140 44.000 -14.140
2 -2 -14.140 44.000 -14.140 -11.360 44.000 -16.000
2 -2 -11.360 44.000 -16.000 -11.360 48.000 -16.000
2 -2 -11.360 48.000 -16.000 -7.650 48.000 -18.480
2 -2 -7.650 48.000 -18.480 0.000 48.000 -20.000
2 -2 16.000 48.000 0.000 16.000 48.000 11.360
2 -2 11.350 48.000 16.000 0.000 48.000 16.000
2 -2 16.000 44.000 0.000 16.000 44.000 11.360
2 -2 11.350 44.000 16.000 0.000 44.000 16.000
2 -2 -16.000 48.000 0.000 -16.000 48.000 11.360
2 -2 -11.350 48.000 16.000 0.000 48.000 16.000
2 -2 -16.000 44.000 0.000 -16.000 44.000 11.360
2 -2 -11.350 44.000 16.000 0.000 44.000 16.000
2 -2 16.000 48.000 0.000 16.000 48.000 -11.360
2 -2 11.350 48.000 -16.000 0.000 48.000 -16.000
2 -2 16.000 44.000 0.000 16.000 44.000 -11.360
2 -2 11.350 44.000 -16.000 0.000 44.000 -16.000
2 -2 -16.000 48.000 0.000 -16.000 48.000 -11.360
2 -2 -11.350 48.000 -16.000 0.000 48.000 -16.000
2 -2 -16.000 44.000 0.000 -16.000 44.000 -11.360
2 -2 -11.350 44.000 -16.000 0.000 44.000 -16.000
1 -1 0.000000 44.000000 0.000000 -1.000000 0.000000 0.000000 0.000000 -1.000000 0.000000 0.000000 0.000000 1.000000 stud4a.dat
1 -1 0.000000 44.000000 0.000000 8.000000 0.000000 0.000000 0.000000 1.000000 0.000000 0.000000 0.000000 8.000000 4-4edge.dat
1 -1 0.000000 28.000000 0.000000 1.000000 0.000000 0.000000 0.000000 1.000000 0.000000 0.000000 0.000000 1.000000 axlehol2.dat
1 -1 0.000000 28.000000 0.000000 1.000000 0.000000 0.000000 0.000000 16.000000 0.000000 0.000000 0.000000 1.000000 axlehole.dat
1 -1 0.000000 44.000000 0.000000 1.000000 0.000000 0.000000 0.000000 1.000000 0.000000 0.000000 0.000000 1.000000 axlehol3.dat
1 -1 0.000000 28.000000 0.000000 -2.000000 0.000000 0.000000 0.000000 -1.000000 0.000000 0.000000 0.000000 2.000000 4-4ring2.dat
1 -1 0.000000 0.000000 0.000000 4.000000 0.000000 0.000000 0.000000 1.000000 0.000000 0.000000 0.000000 4.000000 4-4edge.dat
1 -1 0.000000 28.000000 0.000000 4.000000 0.000000 0.000000 0.000000 1.000000 0.000000 0.000000 0.000000 4.000000 4-4edge.dat
1 -1 0.000000 2.000000 0.000000 6.000000 0.000000 0.000000 0.000000 1.000000 0.000000 0.000000 0.000000 6.000000 4-4edge.dat
1 -1 0.000000 24.000000 0.000000 6.000000 0.000000 0.000000 0.000000 1.000000 0.000000 0.000000 0.000000 6.000000 4-4edge.dat
1 -1 0.000000 24.000000 0.000000 10.000000 0.000000 0.000000 0.000000 1.000000 0.000000 0.000000 0.000000 10.000000 4-4edge.dat
1 -1 0.000000 40.000000 0.000000 10.000000 0.000000 0.000000 0.000000 1.000000 0.000000 0.000000 0.000000 10.000000 4-4edge.dat
1 -1 0.000000 0.000000 0.000000 20.000000 0.000000 0.000000 0.000000 1.000000 0.000000 0.000000 0.000000 20.000000 4-4edge.dat
1 -1 0.000000 2.000000 0.000000 20.000000 0.000000 0.000000 0.000000 1.000000 0.000000 0.000000 0.000000 20.000000 4-4edge.dat
1 -1 0.000000 40.000000 0.000000 20.000000 0.000000 0.000000 0.000000 1.000000 0.000000 0.000000 0.000000 20.000000 4-4edge.dat
4 -1 16.000 48.000 11.360 18.480 48.000 7.650 20.000 48.000 0.000 16.000 48.000 0.000
4 -1 0.000 48.000 20.000 7.650 48.000 18.480 11.360 48.000 16.000 0.000 48.000 16.000
4 -1 -20.000 48.000 0.000 -18.480 48.000 7.650 -16.000 48.000 11.360 -16.000 48.000 0.000
4 -1 -11.360 48.000 16.000 -7.650 48.000 18.480 0.000 48.000 20.000 0.000 48.000 16.000
4 -1 20.000 48.000 0.000 18.480 48.000 -7.650 16.000 48.000 -11.360 16.000 48.000 0.000
4 -1 11.360 48.000 -16.000 7.650 48.000 -18.480 0.000 48.000 -20.000 0.000 48.000 -16.000
4 -1 -16.000 48.000 -11.360 -18.480 48.000 -7.650 -20.000 48.000 0.000 -16.000 48.000 0.000
4 -1 0.000 48.000 -20.000 -7.650 48.000 -18.480 -11.360 48.000 -16.000 0.000 48.000 -16.000
4 -1 18.480 44.000 7.650 20.000 44.000 0.000 20.000 48.000 0.000 18.480 48.000 7.650
4 -1 0.000 48.000 20.000 0.000 44.000 20.000 7.650 44.000 18.480 7.650 48.000 18.480
4 -1 16.000 44.000 11.360 18.480 44.000 7.650 18.480 48.000 7.650 16.000 48.000 11.360
4 -1 7.650 48.000 18.480 7.650 44.000 18.480 11.360 44.000 16.000 11.360 48.000 16.000
4 -1 16.000 44.000 0.000 16.000 44.000 11.360 16.000 48.000 11.360 16.000 48.000 0.000
4 -1 11.360 48.000 16.000 11.360 44.000 16.000 0.000 44.000 16.000 0.000 48.000 16.000
4 -1 -20.000 48.000 0.000 -20.000 44.000 0.000 -18.480 44.000 7.650 -18.480 48.000 7.650
4 -1 -7.650 44.000 18.480 0.000 44.000 20.000 0.000 48.000 20.000 -7.650 48.000 18.480
4 -1 -18.480 48.000 7.650 -18.480 44.000 7.650 -16.000 44.000 11.360 -16.000 48.000 11.360
4 -1 -11.360 44.000 16.000 -7.650 44.000 18.480 -7.650 48.000 18.480 -11.360 48.000 16.000
4 -1 -16.000 48.000 11.360 -16.000 44.000 11.360 -16.000 44.000 0.000 -16.000 48.000 0.000
4 -1 0.000 44.000 16.000 -11.360 44.000 16.000 -11.360 48.000 16.000 0.000 48.000 16.000
4 -1 20.000 48.000 0.000 20.000 44.000 0.000 18.480 44.000 -7.650 18.480 48.000 -7.650
4 -1 7.650 44.000 -18.480 0.000 44.000 -20.000 0.000 48.000 -20.000 7.650 48.000 -18.480
4 -1 18.480 48.000 -7.650 18.480 44.000 -7.650 16.000 44.000 -11.360 16.000 48.000 -11.360
4 -1 11.360 44.000 -16.000 7.650 44.000 -18.480 7.650 48.000 -18.480 11.360 48.000 -16.000
4 -1 16.000 48.000 -11.360 16.000 44.000 -11.360 16.000 44.000 0.000 16.000 48.000 0.000
4 -1 0.000 44.000 -16.000 11.360 44.000 -16.000 11.360 48.000 -16.000 0.000 48.000 -16.000
4 -1 -18.480 44.000 -7.650 -20.000 44.000 0.000 -20.000 48.000 0.000 -18.480 48.000 -7.650
4 -1 0.000 48.000 -20.000 0.000 44.000 -20.000 -7.650 44.000 -18.480 -7.650 48.000 -18.480
4 -1 -16.000 44.000 -11.360 -18.480 44.000 -7.650 -18.480 48.000 -7.650 -16.000 48.000 -11.360
4 -1 -7.650 48.000 -18.480 -7.650 44.000 -18.480 -11.360 44.000 -16.000 -11.360 48.000 -16.000
4 -1 -16.000 44.000 0.000 -16.000 44.000 -11.360 -16.000 48.000 -11.360 -16.000 48.000 0.000
4 -1 -11.360 48.000 -16.000 -11.360 44.000 -16.000 0.000 44.000 -16.000 0.000 48.000 -16.000
1 -1 0.000000 0.000000 0.000000 4.000000 0.000000 0.000000 0.000000 28.000000 0.000000 0.000000 0.000000 4.000000 4-4cyli.dat
1 -1 0.000000 2.000000 0.000000 6.000000 0.000000 0.000000 0.000000 22.000000 0.000000 0.000000 0.000000 6.000000 4-4cyli.dat
1 -1 0.000000 24.000000 0.000000 10.000000 0.000000 0.000000 0.000000 16.000000 0.000000 0.000000 0.000000 10.000000 4-4cyli.dat
1 -1 0.000000 0.000000 0.000000 20.000000 0.000000 0.000000 0.000000 2.000000 0.000000 0.000000 0.000000 20.000000 4-4cyli.dat
1 -1 0.000000 40.000000 0.000000 20.000000 0.000000 0.000000 0.000000 4.000000 0.000000 0.000000 0.000000 20.000000 4-4cyli.dat
4 -1 16.000 44.000 11.360 16.000 44.000 0.000 8.000 44.000 0.000 5.650 44.000 5.650
4 -1 11.360 44.000 16.000 14.140 44.000 14.140 16.000 44.000 11.360 5.650 44.000 5.650
4 -1 0.000 44.000 8.000 0.000 44.000 16.000 11.360 44.000 16.000 5.650 44.000 5.650
4 -1 -8.000 44.000 0.000 -16.000 44.000 0.000 -16.000 44.000 11.360 -5.650 44.000 5.650
4 -1 -16.000 44.000 11.360 -14.140 44.000 14.140 -11.360 44.000 16.000 -5.650 44.000 5.650
4 -1 -11.360 44.000 16.000 0.000 44.000 16.000 0.000 44.000 8.000 -5.650 44.000 5.650
4 -1 8.000 44.000 0.000 16.000 44.000 0.000 16.000 44.000 -11.360 5.650 44.000 -5.650
4 -1 16.000 44.000 -11.360 14.140 44.000 -14.140 11.360 44.000 -16.000 5.650 44.000 -5.650
4 -1 11.360 44.000 -16.000 0.000 44.000 -16.000 0.000 44.000 -8.000 5.650 44.000 -5.650
4 -1 -16.000 44.000 -11.360 -16.000 44.000 0.000 -8.000 44.000 0.000 -5.650 44.000 -5.650
4 -1 -11.360 44.000 -16.000 -14.140 44.000 -14.140 -16.000 44.000 -11.360 -5.650 44.000 -5.650
4 -1 0.000 44.000 -8.000 0.000 44.000 -16.000 -11.360 44.000 -16.000 -5.650 44.000 -5.650
5 -2 0.000 44.000 20.000 0.000 48.000 20.000
5 -2 -7.650 44.000 18.480 -7.650 48.000 18.480
5 -2 -18.480 44.000 7.650 -18.480 48.000 7.650
5 -2 -20.000 44.000 0.000 -20.000 48.000 0.000
5 -2 -18.480 44.000 -7.650 -18.480 48.000 -7.650
5 -2 -7.650 44.000 -18.480 -7.650 48.000 -18.480
5 -2 0.000 44.000 -20.000 0.000 48.000 -20.000
5 -2 7.650 44.000 -18.480 7.650 48.000 -18.480
5 -2 18.480 44.000 -7.650 18.480 48.000 -7.650
5 -2 20.000 44.000 0.000 20.000 48.000 0.000
5 -2 18.480 44.000 7.650 18.480 48.000 7.650
5 -2 7.650 44.000 18.480 7.650 48.000 18.480
1 -1 0.000000 0.000000 0.000000 4.000000 0.000000 0.000000 0.000000 1.000000 0.000000 0.000000 0.000000 4.000000 4-4ring1.dat
1 -1 0.000000 0.000000 0.000000 8.000000 0.000000 0.000000 0.000000 1.000000 0.000000 0.000000 0.000000 8.000000 4-4ring1.dat
1 -1 0.000000 0.000000 0.000000 4.000000 0.000000 0.000000 0.000000 1.000000 0.000000 0.000000 0.000000 4.000000 4-4ring4.dat
1 -1 0.000000 2.000000 0.000000 -4.000000 0.000000 0.000000 0.000000 -1.000000 0.000000 0.000000 0.000000 4.000000 4-4ring1.dat
1 -1 0.000000 2.000000 0.000000 -8.000000 0.000000 0.000000 0.000000 -1.000000 0.000000 0.000000 0.000000 8.000000 4-4ring1.dat
1 -1 0.000000 2.000000 0.000000 -4.000000 0.000000 0.000000 0.000000 -1.000000 0.000000 0.000000 0.000000 4.000000 4-4ring4.dat
1 -1 0.000000 24.000000 0.000000 2.000000 0.000000 0.000000 0.000000 1.000000 0.000000 0.000000 0.000000 2.000000 4-4ring3.dat
1 -1 0.000000 24.000000 0.000000 2.000000 0.000000 0.000000 0.000000 1.000000 0.000000 0.000000 0.000000 2.000000 4-4ring4.dat
1 -1 0.000000 40.000000 0.000000 10.000000 0.000000 0.000000 0.000000 1.000000 0.000000 0.000000 0.000000 10.000000 4-4ring1.dat
1 -1 10.000000 0.000000 10.000000 1.000000 0.000000 0.000000 0.000000 1.000000 0.000000 0.000000 0.000000 1.000000 stud6.dat
1 -1 10.000000 0.000000 -10.000000 0.000000 0.000000 1.000000 0.000000 1.000000 0.000000 -1.000000 0.000000 0.000000 stud6.dat
1 -1 -10.000000 0.000000 -10.000000 -1.000000 0.000000 0.000000 0.000000 1.000000 0.000000 0.000000 0.000000 -1.000000 stud6.dat
1 -1 -10.000000 0.000000 10.000000 0.000000 0.000000 -1.000000 0.000000 1.000000 0.000000 1.000000 0.000000 0.000000 stud6.dat
0 NOFILE
0 FILE 11212.dat
0 Plate 3 x 3
0 Name:  11212
0 Author:  Rolf Osterthun [Rolf]
1 -1 0.000000 4.000000 0.000000 1.000000 0.000000 0.000000 0.000000 -1.000000 0.000000 0.000000 0.000000 1.000000 stug4-2x2.dat
1 -1 0.000000 8.000000 0.000000 30.000000 0.000000 0.000000 0.000000 -8.000000 0.000000 0.000000 0.000000 30.000000 box5.dat
1 -1 0.000000 8.000000 0.000000 26.000000 0.000000 0.000000 0.000000 -4.000000 0.000000 0.000000 0.000000 26.000000 box5.dat
1 -1 0.000000 0.000000 0.000000 1.000000 0.000000 0.000000 0.000000 1.000000 0.000000 0.000000 0.000000 1.000000 stug-3x3.dat
4 -1 30.000 8.000 30.000 26.000 8.000 26.000 -26.000 8.000 26.000 -30.000 8.000 30.000
4 -1 -30.000 8.000 -30.000 -26.000 8.000 -26.000 26.000 8.000 -26.000 30.000 8.000 -30.000
4 -1 30.000 8.000 -30.000 26.000 8.000 -26.000 26.000 8.000 26.000 30.000 8.000 30.000
4 -1 -30.000 8.000 30.000 -26.000 8.000 26.000 -26.000 8.000 -26.000 -30.000 8.000 -30.000
0 NOFILE
0 FILE 3070b.dat
0 Tile 1 x 1 with Groove
0 Name:  3070b
0 Author:  Chris Dee [cwdee]
1 -1 0.000000 0.000000 0.000000 1.000000 0.000000 0.000000 0.000000 1.000000 0.000000 0.000000 0.000000 1.000000 3070bs01.dat
4 -1 -10.000 0.000 10.000 -10.000 0.000 -10.000 10.000 0.000 -10.000 10.000 0.000 10.000
0 NOFILE
0 FILE 3069b.dat
0 Tile 1 x 2 with Groove
0 Name:  3069b
0 Author:  Santeri Piippo [arezey]
4 -1 20.000 0.000 -10.000 20.000 0.000 10.000 -20.000 0.000 10.000 -20.000 0.000 -10.000
1 -1 0.000000 0.000000 0.000000 1.000000 0.000000 0.000000 0.000000 1.000000 0.000000 0.000000 0.000000 1.000000 3069bs01.dat
0 NOFILE
0 FILE stud3.dat
0 Stud Tube Solid
0 Name:  stud3.dat
0 Author:  James Jessiman
1 -1 0.000000 -4.000000 0.000000 4.000000 0.000000 0.000000 0.000000 1.000000 0.000000 0.000000 0.000000 4.000000 4-4edge.dat
1 -1 0.000000 0.000000 0.000000 4.000000 0.000000 0.000000 0.000000 1.000000 0.000000 0.000000 0.000000 4.000000 4-4edge.dat
1 -1 0.000000 -4.000000 0.000000 4.000000 0.000000 0.000000 0.000000 1.000000 0.000000 0.000000 0.000000 4.000000 4-4disc.dat
1 -1 0.000000 -4.000000 0.000000 4.000000 0.000000 0.000000 0.000000 4.000000 0.000000 0.000000 0.000000 4.000000 4-4cyli.dat
0 NOFILE
0 FILE box4-1.dat
0 Box with 4 Faces without 1 Edge
0 Name:  box4-1.dat
0 Author:  Tore Eriksson [Tore_Eriksson]
2 -2 1.000 1.000 1.000 -1.000 1.000 1.000
2 -2 -1.000 1.000 1.000 -1.000 1.000 -1.000
2 -2 -1.000 1.000 -1.000 1.000 1.000 -1.000
2 -2 1.000 1.000 -1.000 1.000 1.000 1.000
2 -2 1.000 0.000 1.000 -1.000 0.000 1.000
2 -2 -1.000 0.000 1.000 -1.000 0.000 -1.000
2 -2 1.000 0.000 -1.000 1.000 0.000 1.000
2 -2 1.000 0.000 1.000 1.000 1.000 1.000
2 -2 -1.000 0.000 1.000 -1.000 1.000 1.000
2 -2 1.000 0.000 -1.000 1.000 1.000 -1.000
2 -2 -1.000 0.000 -1.000 -1.000 1.000 -1.000
4 -1 -1.000 1.000 1.000 1.000 1.000 1.000 1.000 1.000 -1.000 -1.000 1.000 -1.000
4 -1 -1.000 1.000 1.000 -1.000 0.000 1.000 1.000 0.000 1.000 1.000 1.000 1.000
4 -1 -1.000 1.000 -1.000 -1.000 0.000 -1.000 -1.000 0.000 1.000 -1.000 1.000 1.000
4 -1 1.000 1.000 1.000 1.000 0.000 1.000 1.000 0.000 -1.000 1.000 1.000 -1.000
0 NOFILE
0 FILE stud.dat
0 Stud
0 Name:  stud.dat
0 Author:  James Jessiman
1 -1 0.000000 0.000000 0.000000 6.000000 0.000000 0.000000 0.000000 1.000000 0.000000 0.000000 0.000000 6.000000 4-4edge.dat
1 -1 0.000000 -4.000000 0.000000 6.000000 0.000000 0.000000 0.000000 1.000000 0.000000 0.000000 0.000000 6.000000 4-4edge.dat
1 -1 0.000000 0.000000 0.000000 6.000000 0.000000 0.000000 0.000000 -4.000000 0.000000 0.000000 0.000000 6.000000 4-4cyli.dat
1 -1 0.000000 -4.000000 0.000000 6.000000 0.000000 0.000000 0.000000 1.000000 0.000000 0.000000 0.000000 6.000000 4-4disc.dat
0 NOFILE
0 FILE box5.dat
0 Box with 5 Faces and All Edges
0 Name:  box5.dat
0 Author:  James Jessiman
2 -2 1.000 1.000 1.000 -1.000 1.000 1.000
2 -2 -1.000 1.000 1.000 -1.000 1.000 -1.000
2 -2 -1.000 1.000 -1.000 1.000 1.000 -1.000
2 -2 1.000 1.000 -1.000 1.000 1.000 1.000
2 -2 1.000 0.000 1.000 -1.000 0.000 1.000
2 -2 -1.000 0.000 1.000 -1.000 0.000 -1.000
2 -2 -1.000 0.000 -1.000 1.000 0.000 -1.000
2 -2 1.000 0.000 -1.000 1.000 0.000 1.000
2 -2 1.000 0.000 1.000 1.000 1.000 1.000
2 -2 -1.000 0.000 1.000 -1.000 1.000 1.000
2 -2 1.000 0.000 -1.000 1.000 1.000 -1.000
2 -2 -1.000 0.000 -1.000 -1.000 1.000 -1.000
4 -1 -1.000 1.000 1.000 1.000 1.000 1.000 1.000 1.000 -1.000 -1.000 1.000 -1.000
4 -1 -1.000 1.000 1.000 -1.000 0.000 1.000 1.000 0.000 1.000 1.000 1.000 1.000
4 -1 -1.000 1.000 -1.000 -1.000 0.000 -1.000 -1.000 0.000 1.000 -1.000 1.000 1.000
4 -1 1.000 1.000 -1.000 1.000 0.000 -1.000 -1.000 0.000 -1.000 -1.000 1.000 -1.000
4 -1 1.000 1.000 1.000 1.000 0.000 1.000 1.000 0.000 -1.000 1.000 1.000 -1.000
0 NOFILE
0 FILE 1-4disc.dat
0 Disc 0.25
0 Name:  1-4disc.dat
0 Author:  James Jessiman
3 -1 0.000 0.000 0.000 1.000 0.000 0.000 0.924 0.000 0.383
3 -1 0.000 0.000 0.000 0.924 0.000 0.383 0.707 0.000 0.707
3 -1 0.000 0.000 0.000 0.707 0.000 0.707 0.383 0.000 0.924
3 -1 0.000 0.000 0.000 0.383 0.000 0.924 0.000 0.000 1.000
0 NOFILE
0 FILE 1-4cylo.dat
0 Cylinder Open 0.25
0 Name:  1-4cylo.dat
0 Author:  Max Martin Richter [MMR1988]
1 -1 0.000000 0.000000 0.000000 1.000000 0.000000 0.000000 0.000000 1.000000 0.000000 0.000000 0.000000 1.000000 1-4edge.dat
1 -1 0.000000 1.000000 0.000000 1.000000 0.000000 0.000000 0.000000 1.000000 0.000000 0.000000 0.000000 1.000000 1-4edge.dat
1 -1 0.000000 0.000000 0.000000 1.000000 0.000000 0.000000 0.000000 1.000000 0.000000 0.000000 0.000000 1.000000 1-4cyli.dat
0 NOFILE
0 FILE box2-5.dat
0 Box with 2 Faces without 5 Edges
0 Name:  box2-5.dat
0 Author:  Steffen [Steffen]
2 -2 1.000 1.000 1.000 -1.000 1.000 1.000
2 -2 1.000 1.000 -1.000 -1.000 1.000 -1.000
2 -2 1.000 -1.000 1.000 -1.000 -1.000 1.000
2 -2 -1.000 -1.000 1.000 -1.000 1.000 1.000
2 -2 1.000 -1.000 1.000 1.000 1.000 1.000
2 -2 -1.000 1.000 -1.000 -1.000 1.000 1.000
2 -2 1.000 1.000 -1.000 1.000 1.000 1.000
4 -1 1.000 1.000 1.000 1.000 1.000 -1.000 -1.000 1.000 -1.000 -1.000 1.000 1.000
4 -1 1.000 1.000 1.000 -1.000 1.000 1.000 -1.000 -1.000 1.000 1.000 -1.000 1.000
0 NOFILE
0 FILE 11203s01.dat
0 ~Tile 2 x 2 Inverted with Groove without Face
0 Name:  s\11203s01.dat
0 Author:  Rolf Osterthun [Rolf]
1 -1 -10.000000 0.000000 10.000000 -1.000000 0.000000 0.000000 0.000000 1.000000 0.000000 0.000000 0.000000 1.000000 stud2a.dat
1 -1 -10.000000 4.000000 10.000000 -6.000000 0.000000 0.000000 0.000000 1.000000 0.000000 0.000000 0.000000 6.000000 4-4edge.dat
1 -1 -10.000000 4.000000 10.000000 -4.000000 0.000000 0.000000 0.000000 1.000000 0.000000 0.000000 0.000000 4.000000 4-4edge.dat
1 -1 -10.000000 0.000000 10.000000 -6.000000 0.000000 0.000000 0.000000 4.000000 0.000000 0.000000 0.000000 6.000000 4-4cyli.dat
1 -1 -10.000000 0.000000 10.000000 -4.000000 0.000000 0.000000 0.000000 4.000000 0.000000 0.000000 0.000000 4.000000 4-4cyli.dat
1 -1 10.000000 0.000000 10.000000 -1.000000 0.000000 0.000000 0.000000 1.000000 0.000000 0.000000 0.000000 1.000000 stud2a.dat
1 -1 10.000000 4.000000 10.000000 0.000000 0.000000 6.000000 0.000000 1.000000 0.000000 6.000000 0.000000 0.000000 4-4edge.dat
1 -1 10.000000 4.000000 10.000000 0.000000 0.000000 4.000000 0.000000 1.000000 0.000000 4.000000 0.000000 0.000000 4-4edge.dat
1 -1 10.000000 0.000000 10.000000 0.000000 0.000000 6.000000 0.000000 4.000000 0.000000 6.000000 0.000000 0.000000 4-4cyli.dat
1 -1 10.000000 0.000000 10.000000 0.000000 0.000000 4.000000 0.000000 4.000000 0.000000 4.000000 0.000000 0.000000 4-4cyli.dat
1 -1 -10.000000 0.000000 -10.000000 -1.000000 0.000000 0.000000 0.000000 1.000000 0.000000 0.000000 0.000000 1.000000 stud2a.dat
1 -1 10.000000 4.000000 -10.000000 6.000000 0.000000 0.000000 0.000000 1.000000 0.000000 0.000000 0.000000 -6.000000 4-4edge.dat
1 -1 10.000000 4.000000 -10.000000 4.000000 0.000000 0.000000 0.000000 1.000000 0.000000 0.000000 0.000000 -4.000000 4-4edge.dat
1 -1 10.000000 0.000000 -10.000000 6.000000 0.000000 0.000000 0.000000 4.000000 0.000000 0.000000 0.000000 -6.000000 4-4cyli.dat
1 -1 10.000000 0.000000 -10.000000 4.000000 0.000000 0.000000 0.000000 4.000000 0.000000 0.000000 0.000000 -4.000000 4-4cyli.dat
1 -1 10.000000 0.000000 -10.000000 -1.000000 0.000000 0.000000 0.000000 1.000000 0.000000 0.000000 0.000000 1.000000 stud2a.dat
1 -1 -10.000000 4.000000 -10.000000 0.000000 0.000000 -6.000000 0.000000 1.000000 0.000000 -6.000000 0.000000 0.000000 4-4edge.dat
1 -1 -10.000000 4.000000 -10.000000 0.000000 0.000000 -4.000000 0.000000 1.000000 0.000000 -4.000000 0.000000 0.000000 4-4edge.dat
1 -1 -10.000000 0.000000 -10.000000 0.000000 0.000000 -6.000000 0.000000 4.000000 0.000000 -6.000000 0.000000 0.000000 4-4cyli.dat
1 -1 -10.000000 0.000000 -10.000000 0.000000 0.000000 -4.000000 0.000000 4.000000 0.000000 -4.000000 0.000000 0.000000 4-4cyli.dat
1 -1 0.000000 0.000000 0.000000 -17.000000 0.000000 0.000000 0.000000 4.000000 0.000000 0.000000 0.000000 17.000000 box5.dat
4 -1 -19.000 0.000 19.000 -17.000 0.000 17.000 17.000 0.000 17.000 19.000 0.000 19.000
4 -1 19.000 0.000 19.000 17.000 0.000 17.000 17.000 0.000 -17.000 19.000 0.000 -19.000
4 -1 19.000 0.000 -19.000 17.000 0.000 -17.000 -17.000 0.000 -17.000 -19.000 0.000 -19.000
4 -1 -19.000 0.000 -19.000 -17.000 0.000 -17.000 -17.000 0.000 17.000 -19.000 0.000 19.000
1 -1 0.000000 0.000000 0.000000 -19.000000 0.000000 0.000000 0.000000 1.000000 0.000000 0.000000 0.000000 19.000000 box4.dat
4 -1 -20.000 1.000 20.000 -19.000 1.000 19.000 19.000 1.000 19.000 20.000 1.000 20.000
4 -1 20.000 1.000 20.000 19.000 1.000 19.000 19.000 1.000 -19.000 20.000 1.000 -20.000
4 -1 20.000 1.000 -20.000 19.000 1.000 -19.000 -19.000 1.000 -19.000 -20.000 1.000 -20.000
4 -1 -20.000 1.000 -20.000 -19.000 1.000 -19.000 -19.000 1.000 19.000 -20.000 1.000 20.000
1 -1 0.000000 1.000000 0.000000 -20.000000 0.000000 0.000000 0.000000 7.000000 0.000000 0.000000 0.000000 20.000000 box4.dat
1 -1 0.000000 2.000000 -9.000000 1.000000 0.000000 0.000000 0.000000 0.000000 -2.000000 0.000000 5.000000 0.000000 box4-2p.dat
1 -1 -9.000000 2.000000 0.000000 0.000000 5.000000 0.000000 0.000000 0.000000 -2.000000 -1.000000 0.000000 0.000000 box4-2p.dat
1 -1 0.000000 2.000000 9.000000 -1.000000 0.000000 0.000000 0.000000 0.000000 -2.000000 0.000000 -5.000000 0.000000 box4-2p.dat
1 -1 9.000000 2.000000 0.000000 0.000000 -5.000000 0.000000 0.000000 0.000000 -2.000000 1.000000 0.000000 0.000000 box4-2p.dat
2 -2 4.199 0.000 9.000 4.000 0.000 10.000
2 -2 -4.199 0.000 9.000 -4.000 0.000 10.000
2 -2 4.000 0.000 10.000 4.199 0.000 11.000
2 -2 -4.000 0.000 10.000 -4.199 0.000 11.000
4 -1 -1.000 0.000 9.000 1.000 0.000 9.000 4.000 0.000 10.000 -4.000 0.000 10.000
3 -1 -4.000 0.000 10.000 -4.199 0.000 9.000 -1.000 0.000 9.000
3 -1 1.000 0.000 9.000 4.199 0.000 9.000 4.000 0.000 10.000
4 -1 4.000 0.000 10.000 4.199 0.000 11.000 -4.199 0.000 11.000 -4.000 0.000 10.000
1 -1 -2.599000 2.000000 9.000000 0.000000 0.000000 -1.599000 -2.000000 0.000000 0.000000 0.000000 1.000000 0.000000 rect3.dat
1 -1 0.000000 2.000000 11.000000 0.000000 0.000000 -4.199000 2.000000 0.000000 0.000000 0.000000 -1.018000 0.000000 rect.dat
1 -1 2.599000 2.000000 9.000000 0.000000 0.000000 1.599000 2.000000 0.000000 0.000000 0.000000 1.000000 0.000000 rect3.dat
2 -2 -9.000 0.000 4.199 -10.000 0.000 4.000
2 -2 -9.000 0.000 -4.199 -10.000 0.000 -4.000
2 -2 -10.000 0.000 4.000 -11.000 0.000 4.199
2 -2 -10.000 0.000 -4.000 -11.000 0.000 -4.199
4 -1 9.000 0.000 1.000 9.000 0.000 -1.000 10.000 0.000 -4.000 10.000 0.000 4.000
3 -1 10.000 0.000 4.000 9.000 0.000 4.199 9.000 0.000 1.000
3 -1 9.000 0.000 -1.000 9.000 0.000 -4.199 10.000 0.000 -4.000
4 -1 -10.000 0.000 4.000 -11.000 0.000 4.199 -11.000 0.000 -4.199 -10.000 0.000 -4.000
1 -1 -9.000000 2.000000 -2.599000 0.000000 -1.066000 0.000000 -2.000000 0.000000 0.000000 0.000000 0.000000 -1.599000 rect3.dat
1 -1 -11.000000 2.000000 0.000000 0.000000 1.000000 0.000000 2.000000 0.000000 0.000000 0.000000 0.000000 -4.199000 rect.dat
1 -1 -9.000000 2.000000 2.599000 0.000000 -1.066000 0.000000 2.000000 0.000000 0.000000 0.000000 0.000000 1.599000 rect3.dat
2 -2 -4.199 0.000 -9.000 -4.000 0.000 -10.000
2 -2 4.199 0.000 -9.000 4.000 0.000 -10.000
2 -2 -4.000 0.000 -10.000 -4.199 0.000 -11.000
2 -2 4.000 0.000 -10.000 4.199 0.000 -11.000
4 -1 1.000 0.000 -9.000 -1.000 0.000 -9.000 -4.000 0.000 -10.000 4.000 0.000 -10.000
3 -1 4.000 0.000 -10.000 4.199 0.000 -9.000 1.000 0.000 -9.000
3 -1 -1.000 0.000 -9.000 -4.199 0.000 -9.000 -4.000 0.000 -10.000
4 -1 -4.000 0.000 -10.000 -4.199 0.000 -11.000 4.199 0.000 -11.000 4.000 0.000 -10.000
1 -1 2.599000 2.000000 -9.000000 0.000000 0.000000 1.599000 -2.000000 0.000000 0.000000 0.000000 -1.066000 0.000000 rect3.dat
1 -1 0.000000 2.000000 -11.000000 0.000000 0.000000 4.199000 2.000000 0.000000 0.000000 0.000000 1.000000 0.000000 rect.dat
1 -1 -2.599000 2.000000 -9.000000 0.000000 0.000000 -1.599000 2.000000 0.000000 0.000000 0.000000 -1.066000 0.000000 rect3.dat
2 -2 9.000 0.000 -4.199 10.000 0.000 -4.000
2 -2 9.000 0.000 4.199 10.000 0.000 4.000
2 -2 10.000 0.000 -4.000 11.000 0.000 -4.199
2 -2 10.000 0.000 4.000 11.000 0.000 4.199
4 -1 -9.000 0.000 -1.000 -9.000 0.000 1.000 -10.000 0.000 4.000 -10.000 0.000 -4.000
3 -1 -10.000 0.000 -4.000 -9.000 0.000 -4.199 -9.000 0.000 -1.000
3 -1 -9.000 0.000 1.000 -9.000 0.000 4.199 -10.000 0.000 4.000
4 -1 10.000 0.000 -4.000 11.000 0.000 -4.199 11.000 0.000 4.199 10.000 0.000 4.000
1 -1 9.000000 2.000000 2.599000 0.000000 1.000000 0.000000 -2.000000 0.000000 0.000000 0.000000 0.000000 1.599000 rect3.dat
1 -1 11.000000 2.000000 0.000000 0.000000 -1.018000 0.000000 2.000000 0.000000 0.000000 0.000000 0.000000 4.199000 rect.dat
1 -1 9.000000 2.000000 -2.599000 0.000000 1.000000 0.000000 2.000000 0.000000 0.000000 0.000000 0.000000 -1.599000 rect3.dat
0 NOFILE
0 FILE stud4a.dat
0 Stud Tube Open without Base Edges
0 Name:  stud4a.dat
0 Author:  James Jessiman
1 -1 0.000000 -4.000000 0.000000 6.000000 0.000000 0.000000 0.000000 1.000000 0.000000 0.000000 0.000000 6.000000 4-4edge.dat
1 -1 0.000000 -4.000000 0.000000 8.000000 0.000000 0.000000 0.000000 1.000000 0.000000 0.000000 0.000000 8.000000 4-4edge.dat
1 -1 0.000000 -4.000000 0.000000 6.000000 0.000000 0.000000 0.000000 4.000000 0.000000 0.000000 0.000000 6.000000 4-4cyli.dat
1 -1 0.000000 -4.000000 0.000000 8.000000 0.000000 0.000000 0.000000 4.000000 0.000000 0.000000 0.000000 8.000000 4-4cyli.dat
1 -1 0.000000 -4.000000 0.000000 2.000000 0.000000 0.000000 0.000000 1.000000 0.000000 0.000000 0.000000 2.000000 4-4ring3.dat
0 NOFILE
0 FILE 4-4edge.dat
0 Circle 1.0
0 Name:  4-4edge.dat
0 Author:  James Jessiman
2 -2 1.000 0.000 0.000 0.924 0.000 0.383
2 -2 0.924 0.000 0.383 0.707 0.000 0.707
2 -2 0.707 0.000 0.707 0.383 0.000 0.924
2 -2 0.383 0.000 0.924 0.000 0.000 1.000
2 -2 0.000 0.000 1.000 -0.383 0.000 0.924
2 -2 -0.383 0.000 0.924 -0.707 0.000 0.707
2 -2 -0.707 0.000 0.707 -0.924 0.000 0.383
2 -2 -0.924 0.000 0.383 -1.000 0.000 0.000
2 -2 -1.000 0.000 0.000 -0.924 0.000 -0.383
2 -2 -0.924 0.000 -0.383 -0.707 0.000 -0.707
2 -2 -0.707 0.000 -0.707 -0.383 0.000 -0.924
2 -2 -0.383 0.000 -0.924 0.000 0.000 -1.000
2 -2 0.000 0.000 -1.000 0.383 0.000 -0.924
2 -2 0.383 0.000 -0.924 0.707 0.000 -0.707
2 -2 0.707 0.000 -0.707 0.924 0.000 -0.383
2 -2 0.924 0.000 -0.383 1.000 0.000 0.000
0 NOFILE
0 FILE axlehol2.dat
0 Technic Axle Hole Side Edges
0 Name:  axlehol2.dat
0 Author:  James Jessiman
2 -2 6.000 0.000 0.000 5.602 0.000 2.000
2 -2 2.000 0.000 5.602 0.000 0.000 6.000
2 -2 -6.000 0.000 0.000 -5.602 0.000 2.000
2 -2 -2.000 0.000 5.602 0.000 0.000 6.000
2 -2 6.000 0.000 0.000 5.602 0.000 -2.000
2 -2 2.000 0.000 -5.602 0.000 0.000 -6.000
2 -2 -6.000 0.000 0.000 -5.602 0.000 -2.000
2 -2 -2.000 0.000 -5.602 0.000 0.000 -6.000
0 NOFILE
0 FILE axlehole.dat
0 Technic Axle Hole Closed
0 Name:  axlehole.dat
0 Author:  James Jessiman
5 -2 6.000 0.000 0.000 6.000 1.000 0.000
5 -2 0.000 0.000 6.000 0.000 1.000 6.000
5 -2 -6.000 0.000 0.000 -6.000 1.000 0.000
5 -2 0.000 0.000 -6.000 0.000 1.000 -6.000
2 -2 5.602 0.000 2.000 2.000 0.000 2.000
2 -2 2.000 0.000 2.000 2.000 0.000 5.602
2 -2 -5.602 0.000 2.000 -2.000 0.000 2.000
2 -2 -2.000 0.000 2.000 -2.000 0.000 5.602
2 -2 5.602 0.000 -2.000 2.000 0.000 -2.000
2 -2 2.000 0.000 -2.000 2.000 0.000 -5.602
2 -2 -5.602 0.000 -2.000 -2.000 0.000 -2.000
2 -2 -2.000 0.000 -2.000 -2.000 0.000 -5.602
2 -2 5.602 1.000 2.000 2.000 1.000 2.000
2 -2 2.000 1.000 2.000 2.000 1.000 5.602
2 -2 -5.602 1.000 2.000 -2.000 1.000 2.000
2 -2 -2.000 1.000 2.000 -2.000 1.000 5.602
2 -2 5.602 1.000 -2.000 2.000 1.000 -2.000
2 -2 2.000 1.000 -2.000 2.000 1.000 -5.602
2 -2 -5.602 1.000 -2.000 -2.000 1.000 -2.000
2 -2 -2.000 1.000 -2.000 -2.000 1.000 -5.602
2 -2 5.602 0.000 2.000 5.602 1.000 2.000
2 -2 2.000 0.000 2.000 2.000 1.000 2.000
2 -2 2.000 0.000 5.602 2.000 1.000 5.602
2 -2 -5.602 0.000 2.000 -5.602 1.000 2.000
2 -2 -2.000 0.000 2.000 -2.000 1.000 2.000
2 -2 -2.000 0.000 5.602 -2.000 1.000 5.602
2 -2 5.602 0.000 -2.000 5.602 1.000 -2.000
2 -2 2.000 0.000 -2.000 2.000 1.000 -2.000
2 -2 2.000 0.000 -5.602 2.000 1.000 -5.602
2 -2 -5.602 0.000 -2.000 -5.602 1.000 -2.000
2 -2 -2.000 0.000 -2.000 -2.000 1.000 -2.000
2 -2 -2.000 0.000 -5.602 -2.000 1.000 -5.602
4 -1 5.602 0.000 2.000 5.602 1.000 2.000 6.000 1.000 0.000 6.000 0.000 0.000
4 -1 2.000 0.000 2.000 2.000 1.000 2.000 5.602 1.000 2.000 5.602 0.000 2.000
4 -1 2.000 0.000 5.602 2.000 1.000 5.602 2.000 1.000 2.000 2.000 0.000 2.000
4 -1 0.000 0.000 6.000 0.000 1.000 6.000 2.000 1.000 5.602 2.000 0.000 5.602
4 -1 -6.000 1.000 0.000 -5.602 1.000 2.000 -5.602 0.000 2.000 -6.000 0.000 0.000
4 -1 -5.602 1.000 2.000 -2.000 1.000 2.000 -2.000 0.000 2.000 -5.602 0.000 2.000
4 -1 -2.000 1.000 2.000 -2.000 1.000 5.602 -2.000 0.000 5.602 -2.000 0.000 2.000
4 -1 -2.000 1.000 5.602 0.000 1.000 6.000 0.000 0.000 6.000 -2.000 0.000 5.602
4 -1 6.000 1.000 0.000 5.602 1.000 -2.000 5.602 0.000 -2.000 6.000 0.000 0.000
4 -1 5.602 1.000 -2.000 2.000 1.000 -2.000 2.000 0.000 -2.000 5.602 0.000 -2.000
4 -1 2.000 1.000 -2.000 2.000 1.000 -5.602 2.000 0.000 -5.602 2.000 0.000 -2.000
4 -1 2.000 1.000 -5.602 0.000 1.000 -6.000 0.000 0.000 -6.000 2.000 0.000 -5.602
4 -1 -5.602 0.000 -2.000 -5.602 1.000 -2.000 -6.000 1.000 0.000 -6.000 0.000 0.000
4 -1 -2.000 0.000 -2.000 -2.000 1.000 -2.000 -5.602 1.000 -2.000 -5.602 0.000 -2.000
4 -1 -2.000 0.000 -5.602 -2.000 1.000 -5.602 -2.000 1.000 -2.000 -2.000 0.000 -2.000
4 -1 0.000 0.000 -6.000 0.000 1.000 -6.000 -2.000 1.000 -5.602 -2.000 0.000 -5.602
3 -1 2.000 0.000 -2.000 5.543 0.000 -2.296 5.602 0.000 -2.000
3 -1 2.000 0.000 -2.000 2.000 0.000 -5.602 2.296 0.000 -5.543
3 -1 -5.602 0.000 -2.000 -5.543 0.000 -2.296 -2.000 0.000 -2.000
3 -1 -2.296 0.000 -5.543 -2.000 0.000 -5.602 -2.000 0.000 -2.000
3 -1 5.602 0.000 2.000 5.543 0.000 2.296 2.000 0.000 2.000
3 -1 2.296 0.000 5.543 2.000 0.000 5.602 2.000 0.000 2.000
3 -1 -2.000 0.000 2.000 -5.543 0.000 2.296 -5.602 0.000 2.000
3 -1 -2.000 0.000 2.000 -2.000 0.000 5.602 -2.296 0.000 5.543
3 -1 5.602 1.000 -2.000 5.543 1.000 -2.296 2.000 1.000 -2.000
3 -1 2.296 1.000 -5.543 2.000 1.000 -5.602 2.000 1.000 -2.000
3 -1 -2.000 1.000 -2.000 -5.543 1.000 -2.296 -5.602 1.000 -2.000
3 -1 -2.000 1.000 -2.000 -2.000 1.000 -5.602 -2.296 1.000 -5.543
3 -1 2.000 1.000 2.000 5.543 1.000 2.296 5.602 1.000 2.000
3 -1 2.000 1.000 2.000 2.000 1.000 5.602 2.296 1.000 5.543
3 -1 -5.602 1.000 2.000 -5.543 1.000 2.296 -2.000 1.000 2.000
3 -1 -2.296 1.000 5.543 -2.000 1.000 5.602 -2.000 1.000 2.000
3 -1 2.000 0.000 -2.000 2.296 0.000 -5.543 5.543 0.000 -2.296
1 -1 0.000000 0.000000 0.000000 5.543280 0.000000 -2.296100 0.000000 1.000000 0.000000 2.296100 0.000000 5.543280 1-8chrd.dat
3 -1 -2.000 0.000 -2.000 -5.543 0.000 -2.296 -2.296 0.000 -5.543
1 -1 0.000000 0.000000 0.000000 -2.296100 0.000000 -5.543280 0.000000 1.000000 0.000000 5.543280 0.000000 -2.296100 1-8chrd.dat
3 -1 -2.000 0.000 2.000 -2.296 0.000 5.543 -5.543 0.000 2.296
1 -1 0.000000 0.000000 0.000000 -5.543280 0.000000 2.296100 0.000000 1.000000 0.000000 -2.296100 0.000000 -5.543280 1-8chrd.dat
3 -1 2.000 0.000 2.000 5.543 0.000 2.296 2.296 0.000 5.543
1 -1 0.000000 0.000000 0.000000 2.296100 0.000000 5.543280 0.000000 1.000000 0.000000 -5.543280 0.000000 2.296100 1-8chrd.dat
3 -1 2.000 1.000 2.000 2.296 1.000 5.543 5.543 1.000 2.296
1 -1 0.000000 1.000000 0.000000 5.543280 0.000000 -2.296100 0.000000 -1.000000 0.000000 -2.296100 0.000000 -5.543280 1-8chrd.dat
3 -1 -2.000 1.000 2.000 -5.543 1.000 2.296 -2.296 1.000 5.543
1 -1 0.000000 1.000000 0.000000 -2.296100 0.000000 -5.543280 0.000000 -1.000000 0.000000 -5.543280 0.000000 2.296100 1-8chrd.dat
3 -1 -2.000 1.000 -2.000 -2.296 1.000 -5.543 -5.543 1.000 -2.296
1 -1 0.000000 1.000000 0.000000 -5.543280 0.000000 2.296100 0.000000 -1.000000 0.000000 2.296100 0.000000 5.543280 1-8chrd.dat
3 -1 2.000 1.000 -2.000 5.543 1.000 -2.296 2.296 1.000 -5.543
1 -1 0.000000 1.000000 0.000000 2.296100 0.000000 5.543280 0.000000 -1.000000 0.000000 5.543280 0.000000 -2.296100 1-8chrd.dat
0 NOFILE
0 FILE axlehol3.dat
0 Technic Axle Hole Tooth Outer Edges
0 Name:  axlehol3.dat
0 Author:  James Jessiman
2 -2 5.602 0.000 2.000 5.543 0.000 2.296
2 -2 5.543 0.000 2.296 4.243 0.000 4.243
2 -2 4.243 0.000 4.243 2.296 0.000 5.543
2 -2 2.296 0.000 5.543 2.000 0.000 5.602
2 -2 -5.602 0.000 2.000 -5.543 0.000 2.296
2 -2 -5.543 0.000 2.296 -4.243 0.000 4.243
2 -2 -4.243 0.000 4.243 -2.296 0.000 5.543
2 -2 -2.296 0.000 5.543 -2.000 0.000 5.602
2 -2 5.602 0.000 -2.000 5.543 0.000 -2.296
2 -2 5.543 0.000 -2.296 4.243 0.000 -4.243
2 -2 4.243 0.000 -4.243 2.296 0.000 -5.543
2 -2 2.296 0.000 -5.543 2.000 0.000 -5.602
2 -2 -5.602 0.000 -2.000 -5.543 0.000 -2.296
2 -2 -5.543 0.000 -2.296 -4.243 0.000 -4.243
2 -2 -4.243 0.000 -4.243 -2.296 0.000 -5.543
2 -2 -2.296 0.000 -5.543 -2.000 0.000 -5.602
0 NOFILE
0 FILE 4-4ring2.dat
0 Ring 2 x 1.0
0 Name:  4-4ring2.dat
0 Author:  James Jessiman
4 -1 -1.148 0.000 2.772 -0.765 0.000 1.848 0.000 0.000 2.000 0.000 0.000 3.000
4 -1 -2.121 0.000 2.121 -1.414 0.000 1.414 -0.765 0.000 1.848 -1.148 0.000 2.772
4 -1 -2.772 0.000 1.148 -1.848 0.000 0.765 -1.414 0.000 1.414 -2.121 0.000 2.121
4 -1 -3.000 0.000 0.000 -2.000 0.000 0.000 -1.848 0.000 0.765 -2.772 0.000 1.148
4 -1 -2.772 0.000 -1.148 -1.848 0.000 -0.765 -2.000 0.000 0.000 -3.000 0.000 0.000
4 -1 -2.121 0.000 -2.121 -1.414 0.000 -1.414 -1.848 0.000 -0.765 -2.772 0.000 -1.148
4 -1 -1.148 0.000 -2.772 -0.765 0.000 -1.848 -1.414 0.000 -1.414 -2.121 0.000 -2.121
4 -1 0.000 0.000 -3.000 0.000 0.000 -2.000 -0.765 0.000 -1.848 -1.148 0.000 -2.772
4 -1 1.148 0.000 -2.772 0.765 0.000 -1.848 0.000 0.000 -2.000 0.000 0.000 -3.000
4 -1 2.121 0.000 -2.121 1.414 0.000 -1.414 0.765 0.000 -1.848 1.148 0.000 -2.772
4 -1 2.772 0.000 -1.148 1.848 0.000 -0.765 1.414 0.000 -1.414 2.121 0.000 -2.121
4 -1 3.000 0.000 0.000 2.000 0.000 0.000 1.848 0.000 -0.765 2.772 0.000 -1.148
4 -1 2.772 0.000 1.148 1.848 0.000 0.765 2.000 0.000 0.000 3.000 0.000 0.000
4 -1 2.121 0.000 2.121 1.414 0.000 1.414 1.848 0.000 0.765 2.772 0.000 1.148
4 -1 1.148 0.000 2.772 0.765 0.000 1.848 1.414 0.000 1.414 2.121 0.000 2.121
4 -1 0.000 0.000 3.000 0.000 0.000 2.000 0.765 0.000 1.848 1.148 0.000 2.772
0 NOFILE
0 FILE 4-4cyli.dat
0 Cylinder 1.0
0 Name:  4-4cyli.dat
0 Author:  James Jessiman
4 -1 1.000 1.000 0.000 0.924 1.000 0.383 0.924 0.000 0.383 1.000 0.000 0.000
5 -2 1.000 0.000 0.000 1.000 1.000 0.000
4 -1 0.924 1.000 0.383 0.707 1.000 0.707 0.707 0.000 0.707 0.924 0.000 0.383
5 -2 0.924 0.000 0.383 0.924 1.000 0.383
4 -1 0.707 1.000 0.707 0.383 1.000 0.924 0.383 0.000 0.924 0.707 0.000 0.707
5 -2 0.707 0.000 0.707 0.707 1.000 0.707
4 -1 0.383 1.000 0.924 0.000 1.000 1.000 0.000 0.000 1.000 0.383 0.000 0.924
5 -2 0.383 0.000 0.924 0.383 1.000 0.924
4 -1 0.000 1.000 1.000 -0.383 1.000 0.924 -0.383 0.000 0.924 0.000 0.000 1.000
5 -2 0.000 0.000 1.000 0.000 1.000 1.000
4 -1 -0.383 1.000 0.924 -0.707 1.000 0.707 -0.707 0.000 0.707 -0.383 0.000 0.924
5 -2 -0.383 0.000 0.924 -0.383 1.000 0.924
4 -1 -0.707 1.000 0.707 -0.924 1.000 0.383 -0.924 0.000 0.383 -0.707 0.000 0.707
5 -2 -0.707 0.000 0.707 -0.707 1.000 0.707
4 -1 -0.924 1.000 0.383 -1.000 1.000 0.000 -1.000 0.000 0.000 -0.924 0.000 0.383
5 -2 -0.924 0.000 0.383 -0.924 1.000 0.383
4 -1 -1.000 1.000 0.000 -0.924 1.000 -0.383 -0.924 0.000 -0.383 -1.000 0.000 0.000
5 -2 -1.000 0.000 0.000 -1.000 1.000 0.000
4 -1 -0.924 1.000 -0.383 -0.707 1.000 -0.707 -0.707 0.000 -0.707 -0.924 0.000 -0.383
5 -2 -0.924 0.000 -0.383 -0.924 1.000 -0.383
4 -1 -0.707 1.000 -0.707 -0.383 1.000 -0.924 -0.383 0.000 -0.924 -0.707 0.000 -0.707
5 -2 -0.707 0.000 -0.707 -0.707 1.000 -0.707
4 -1 -0.383 1.000 -0.924 0.000 1.000 -1.000 0.000 0.000 -1.000 -0.383 0.000 -0.924
5 -2 -0.383 0.000 -0.924 -0.383 1.000 -0.924
4 -1 0.000 1.000 -1.000 0.383 1.000 -0.924 0.383 0.000 -0.924 0.000 0.000 -1.000
5 -2 0.000 0.000 -1.000 0.000 1.000 -1.000
4 -1 0.383 1.000 -0.924 0.707 1.000 -0.707 0.707 0.000 -0.707 0.383 0.000 -0.924
5 -2 0.383 0.000 -0.924 0.383 1.000 -0.924
4 -1 0.707 1.000 -0.707 0.924 1.000 -0.383 0.924 0.000 -0.383 0.707 0.000 -0.707
5 -2 0.707 0.000 -0.707 0.707 1.000 -0.707
4 -1 0.924 1.000 -0.383 1.000 1.000 0.000 1.000 0.000 0.000 0.924 0.000 -0.383
5 -2 0.924 0.000 -0.383 0.924 1.000 -0.383
0 NOFILE
0 FILE 4-4ring1.dat
0 Ring 1 x 1.0
0 Name:  4-4ring1.dat
0 Author:  James Jessiman
4 -1 -0.765 0.000 1.848 -0.383 0.000 0.924 0.000 0.000 1.000 0.000 0.000 2.000
4 -1 -1.414 0.000 1.414 -0.707 0.000 0.707 -0.383 0.000 0.924 -0.765 0.000 1.848
4 -1 -1.848 0.000 0.765 -0.924 0.000 0.383 -0.707 0.000 0.707 -1.414 0.000 1.414
4 -1 -2.000 0.000 0.000 -1.000 0.000 0.000 -0.924 0.000 0.383 -1.848 0.000 0.765
4 -1 -1.848 0.000 -0.765 -0.924 0.000 -0.383 -1.000 0.000 0.000 -2.000 0.000 0.000
4 -1 -1.414 0.000 -1.414 -0.707 0.000 -0.707 -0.924 0.000 -0.383 -1.848 0.000 -0.765
4 -1 -0.765 0.000 -1.848 -0.383 0.000 -0.924 -0.707 0.000 -0.707 -1.414 0.000 -1.414
4 -1 0.000 0.000 -2.000 0.000 0.000 -1.000 -0.383 0.000 -0.924 -0.765 0.000 -1.848
4 -1 0.765 0.000 -1.848 0.383 0.000 -0.924 0.000 0.000 -1.000 0.000 0.000 -2.000
4 -1 1.414 0.000 -1.414 0.707 0.000 -0.707 0.383 0.000 -0.924 0.765 0.000 -1.848
4 -1 1.848 0.000 -0.765 0.924 0.000 -0.383 0.707 0.000 -0.707 1.414 0.000 -1.414
4 -1 2.000 0.000 0.000 1.000 0.000 0.000 0.924 0.000 -0.383 1.848 0.000 -0.765
4 -1 1.848 0.000 0.765 0.924 0.000 0.383 1.000 0.000 0.000 2.000 0.000 0.000
4 -1 1.414 0.000 1.414 0.707 0.000 0.707 0.924 0.000 0.383 1.848 0.000 0.765
4 -1 0.765 0.000 1.848 0.383 0.000 0.924 0.707 0.000 0.707 1.414 0.000 1.414
4 -1 0.000 0.000 2.000 0.000 0.000 1.000 0.383 0.000 0.924 0.765 0.000 1.848
0 NOFILE
0 FILE 4-4ring4.dat
0 Ring 4 x 1.0
0 Name:  4-4ring4.dat
0 Author:  James Jessiman
4 -1 -1.914 0.000 4.620 -1.531 0.000 3.696 0.000 0.000 4.000 0.000 0.000 5.000
4 -1 -3.536 0.000 3.536 -2.828 0.000 2.828 -1.531 0.000 3.696 -1.914 0.000 4.620
4 -1 -4.620 0.000 1.914 -3.696 0.000 1.531 -2.828 0.000 2.828 -3.536 0.000 3.536
4 -1 -5.000 0.000 0.000 -4.000 0.000 0.000 -3.696 0.000 1.531 -4.620 0.000 1.914
4 -1 -4.620 0.000 -1.914 -3.696 0.000 -1.531 -4.000 0.000 0.000 -5.000 0.000 0.000
4 -1 -3.536 0.000 -3.536 -2.828 0.000 -2.828 -3.696 0.000 -1.531 -4.620 0.000 -1.914
4 -1 -1.914 0.000 -4.620 -1.531 0.000 -3.696 -2.828 0.000 -2.828 -3.536 0.000 -3.536
4 -1 0.000 0.000 -5.000 0.000 0.000 -4.000 -1.531 0.000 -3.696 -1.914 0.000 -4.620
4 -1 1.914 0.000 -4.620 1.531 0.000 -3.696 0.000 0.000 -4.000 0.000 0.000 -5.000
4 -1 3.536 0.000 -3.536 2.828 0.000 -2.828 1.531 0.000 -3.696 1.914 0.000 -4.620
4 -1 4.620 0.000 -1.914 3.696 0.000 -1.531 2.828 0.000 -2.828 3.536 0.000 -3.536
4 -1 5.000 0.000 0.000 4.000 0.000 0.000 3.696 0.000 -1.531 4.620 0.000 -1.914
4 -1 4.620 0.000 1.914 3.696 0.000 1.531 4.000 0.000 0.000 5.000 0.000 0.000
4 -1 3.536 0.000 3.536 2.828 0.000 2.828 3.696 0.000 1.531 4.620 0.000 1.914
4 -1 1.914 0.000 4.620 1.531 0.000 3.696 2.828 0.000 2.828 3.536 0.000 3.536
4 -1 0.000 0.000 5.000 0.000 0.000 4.000 1.531 0.000 3.696 1.914 0.000 4.620
0 NOFILE
0 FILE 4-4ring3.dat
0 Ring 3 x 1.0
0 Name:  4-4ring3.dat
0 Author:  James Jessiman
4 -1 -1.531 0.000 3.696 -1.148 0.000 2.772 0.000 0.000 3.000 0.000 0.000 4.000
4 -1 -2.828 0.000 2.828 -2.121 0.000 2.121 -1.148 0.000 2.772 -1.531 0.000 3.696
4 -1 -3.696 0.000 1.531 -2.772 0.000 1.148 -2.121 0.000 2.121 -2.828 0.000 2.828
4 -1 -4.000 0.000 0.000 -3.000 0.000 0.000 -2.772 0.000 1.148 -3.696 0.000 1.531
4 -1 -3.696 0.000 -1.531 -2.772 0.000 -1.148 -3.000 0.000 0.000 -4.000 0.000 0.000
4 -1 -2.828 0.000 -2.828 -2.121 0.000 -2.121 -2.772 0.000 -1.148 -3.696 0.000 -1.531
4 -1 -1.531 0.000 -3.696 -1.148 0.000 -2.772 -2.121 0.000 -2.121 -2.828 0.000 -2.828
4 -1 0.000 0.000 -4.000 0.000 0.000 -3.000 -1.148 0.000 -2.772 -1.531 0.000 -3.696
4 -1 1.531 0.000 -3.696 1.148 0.000 -2.772 0.000 0.000 -3.000 0.000 0.000 -4.000
4 -1 2.828 0.000 -2.828 2.121 0.000 -2.121 1.148 0.000 -2.772 1.531 0.000 -3.696
4 -1 3.696 0.000 -1.531 2.772 0.000 -1.148 2.121 0.000 -2.121 2.828 0.000 -2.828
4 -1 4.000 0.000 0.000 3.000 0.000 0.000 2.772 0.000 -1.148 3.696 0.000 -1.531
4 -1 3.696 0.000 1.531 2.772 0.000 1.148 3.000 0.000 0.000 4.000 0.000 0.000
4 -1 2.828 0.000 2.828 2.121 0.000 2.121 2.772 0.000 1.148 3.696 0.000 1.531
4 -1 1.531 0.000 3.696 1.148 0.000 2.772 2.121 0.000 2.121 2.828 0.000 2.828
4 -1 0.000 0.000 4.000 0.000 0.000 3.000 1.148 0.000 2.772 1.531 0.000 3.696
0 NOFILE
0 FILE stud6.dat
0 Stud Open For Round 2x2 Parts
0 Name:  stud6.dat
0 Author:  Steve Bliss [sbliss]
1 -1 0.000000 0.000000 0.000000 0.000000 0.000000 -6.000000 0.000000 1.000000 0.000000 6.000000 0.000000 0.000000 3-4edge.dat
1 -1 0.000000 0.000000 0.000000 4.000000 0.000000 0.000000 0.000000 1.000000 0.000000 0.000000 0.000000 4.000000 4-4edge.dat
2 -2 6.000 0.000 0.000 5.615 0.000 1.940
2 -2 1.939 0.000 5.615 0.000 0.000 6.000
2 -2 5.615 -4.000 1.940 5.615 0.000 1.940
2 -2 6.000 -4.000 0.000 5.615 -4.000 1.940
2 -2 5.615 -4.000 1.940 4.142 -4.000 4.142
2 -2 4.142 -4.000 4.142 1.939 -4.000 5.615
2 -2 1.939 -4.000 5.615 0.000 -4.000 6.000
2 -2 1.939 -4.000 5.615 1.939 0.000 5.615
1 -1 0.000000 -4.000000 0.000000 0.000000 0.000000 -6.000000 0.000000 1.000000 0.000000 6.000000 0.000000 0.000000 3-4edge.dat
1 -1 0.000000 -4.000000 0.000000 4.000000 0.000000 0.000000 0.000000 1.000000 0.000000 0.000000 0.000000 4.000000 4-4edge.dat
1 -1 0.000000 -4.000000 0.000000 4.000000 0.000000 0.000000 0.000000 4.000000 0.000000 0.000000 0.000000 4.000000 4-4cyli.dat
1 -1 0.000000 -4.000000 0.000000 0.000000 0.000000 -2.000000 0.000000 1.000000 0.000000 2.000000 0.000000 0.000000 1-4ring2.dat
1 -1 0.000000 -4.000000 0.000000 -2.000000 0.000000 0.000000 0.000000 1.000000 0.000000 0.000000 0.000000 -2.000000 1-4ring2.dat
1 -1 0.000000 -4.000000 0.000000 0.000000 0.000000 2.000000 0.000000 1.000000 0.000000 -2.000000 0.000000 0.000000 1-4ring2.dat
4 -1 6.000 -4.000 0.000 5.615 -4.000 1.940 3.695 -4.000 1.531 4.000 -4.000 0.000
4 -1 5.615 -4.000 1.940 4.142 -4.000 4.142 2.828 -4.000 2.828 3.695 -4.000 1.531
4 -1 4.142 -4.000 4.142 1.940 -4.000 5.615 1.531 -4.000 3.695 2.828 -4.000 2.828
4 -1 1.940 -4.000 5.615 0.000 -4.000 6.000 0.000 -4.000 4.000 1.531 -4.000 3.695
1 -1 0.000000 -4.000000 0.000000 0.000000 0.000000 -6.000000 0.000000 4.000000 0.000000 6.000000 0.000000 0.000000 3-4cyli.dat
5 -2 4.142 -4.000 4.142 4.142 0.000 4.142
4 -1 6.000 0.000 0.000 5.615 0.000 1.940 5.615 -4.000 1.940 6.000 -4.000 0.000
4 -1 5.615 0.000 1.940 4.142 0.000 4.142 4.142 -4.000 4.142 5.615 -4.000 1.940
4 -1 4.142 0.000 4.142 1.939 0.000 5.615 1.939 -4.000 5.615 4.142 -4.000 4.142
4 -1 1.939 0.000 5.615 0.000 0.000 6.000 0.000 -4.000 6.000 1.939 -4.000 5.615
0 NOFILE
0 FILE stug4-2x2.dat
0 Stud Tube Open Group 2 x 2
0 Name:  stug4-2x2.dat
0 Author:  Steffen [Steffen]
1 -1 -10.000000 0.000000 -10.000000 1.000000 0.000000 0.000000 0.000000 1.000000 0.000000 0.000000 0.000000 1.000000 stud4.dat
1 -1 10.000000 0.000000 -10.000000 1.000000 0.000000 0.000000 0.000000 1.000000 0.000000 0.000000 0.000000 1.000000 stud4.dat
1 -1 -10.000000 0.000000 10.000000 1.000000 0.000000 0.000000 0.000000 1.000000 0.000000 0.000000 0.000000 1.000000 stud4.dat
1 -1 10.000000 0.000000 10.000000 1.000000 0.000000 0.000000 0.000000 1.000000 0.000000 0.000000 0.000000 1.000000 stud4.dat
0 NOFILE
0 FILE stug-3x3.dat
0 Stud Group 3 x 3
0 Name:  stug-3x3.dat
0 Author:  Steve Bliss [sbliss]
1 -1 -20.000000 0.000000 -20.000000 1.000000 0.000000 0.000000 0.000000 1.000000 0.000000 0.000000 0.000000 1.000000 stud.dat
1 -1 -20.000000 0.000000 0.000000 1.000000 0.000000 0.000000 0.000000 1.000000 0.000000 0.000000 0.000000 1.000000 stud.dat
1 -1 -20.000000 0.000000 20.000000 1.000000 0.000000 0.000000 0.000000 1.000000 0.000000 0.000000 0.000000 1.000000 stud.dat
1 -1 0.000000 0.000000 -20.000000 1.000000 0.000000 0.000000 0.000000 1.000000 0.000000 0.000000 0.000000 1.000000 stud.dat
1 -1 0.000000 0.000000 0.000000 1.000000 0.000000 0.000000 0.000000 1.000000 0.000000 0.000000 0.000000 1.000000 stud.dat
1 -1 0.000000 0.000000 20.000000 1.000000 0.000000 0.000000 0.000000 1.000000 0.000000 0.000000 0.000000 1.000000 stud.dat
1 -1 20.000000 0.000000 -20.000000 1.000000 0.000000 0.000000 0.000000 1.000000 0.000000 0.000000 0.000000 1.000000 stud.dat
1 -1 20.000000 0.000000 0.000000 1.000000 0.000000 0.000000 0.000000 1.000000 0.000000 0.000000 0.000000 1.000000 stud.dat
1 -1 20.000000 0.000000 20.000000 1.000000 0.000000 0.000000 0.000000 1.000000 0.000000 0.000000 0.000000 1.000000 stud.dat
0 NOFILE
0 FILE 3070bs01.dat
0 ~Tile 1 x 1 with Groove without Top Face
0 Name:  s\3070bs01.dat
0 Author:  Chris Dee [cwdee]
1 -1 0.000000 0.000000 0.000000 10.000000 0.000000 0.000000 0.000000 7.000000 0.000000 0.000000 0.000000 10.000000 box4.dat
1 -1 0.000000 8.000000 0.000000 6.000000 0.000000 0.000000 0.000000 -4.000000 0.000000 0.000000 0.000000 6.000000 box5.dat
1 -1 0.000000 7.000000 0.000000 9.000000 0.000000 0.000000 0.000000 1.000000 0.000000 0.000000 0.000000 9.000000 box4.dat
4 -1 9.000 8.000 9.000 6.000 8.000 6.000 -6.000 8.000 6.000 -9.000 8.000 9.000
4 -1 -9.000 8.000 9.000 -6.000 8.000 6.000 -6.000 8.000 -6.000 -9.000 8.000 -9.000
4 -1 -9.000 8.000 -9.000 -6.000 8.000 -6.000 6.000 8.000 -6.000 9.000 8.000 -9.000
4 -1 9.000 8.000 -9.000 6.000 8.000 -6.000 6.000 8.000 6.000 9.000 8.000 9.000
4 -1 10.000 7.000 10.000 9.000 7.000 9.000 -9.000 7.000 9.000 -10.000 7.000 10.000
4 -1 -10.000 7.000 10.000 -9.000 7.000 9.000 -9.000 7.000 -9.000 -10.000 7.000 -10.000
4 -1 -10.000 7.000 -10.000 -9.000 7.000 -9.000 9.000 7.000 -9.000 10.000 7.000 -10.000
4 -1 10.000 7.000 -10.000 9.000 7.000 -9.000 9.000 7.000 9.000 10.000 7.000 10.000
0 NOFILE
0 FILE 3069bs01.dat
0 ~Tile 1 x 2 with Groove without Top Face
0 Name:  s\3069bs01.dat
0 Author:  Santeri Piippo [arezey]
1 -1 0.000000 0.000000 0.000000 20.000000 0.000000 0.000000 0.000000 7.000000 0.000000 0.000000 0.000000 10.000000 box4.dat
1 -1 0.000000 7.000000 0.000000 19.000000 0.000000 0.000000 0.000000 1.000000 0.000000 0.000000 0.000000 9.000000 box4.dat
1 -1 0.000000 8.000000 0.000000 16.000000 0.000000 0.000000 0.000000 -4.000000 0.000000 0.000000 0.000000 6.000000 box5.dat
4 -1 -19.000 8.000 9.000 -16.000 8.000 6.000 -16.000 8.000 -6.000 -19.000 8.000 -9.000
4 -1 19.000 8.000 -9.000 16.000 8.000 -6.000 16.000 8.000 6.000 19.000 8.000 9.000
4 -1 19.000 8.000 9.000 16.000 8.000 6.000 -16.000 8.000 6.000 -19.000 8.000 9.000
4 -1 -19.000 8.000 -9.000 -16.000 8.000 -6.000 16.000 8.000 -6.000 19.000 8.000 -9.000
4 -1 -20.000 7.000 10.000 -19.000 7.000 9.000 -19.000 7.000 -9.000 -20.000 7.000 -10.000
4 -1 20.000 7.000 -10.000 19.000 7.000 -9.000 19.000 7.000 9.000 20.000 7.000 10.000
4 -1 20.000 7.000 10.000 19.000 7.000 9.000 -19.000 7.000 9.000 -20.000 7.000 10.000
4 -1 -20.000 7.000 -10.000 -19.000 7.000 -9.000 19.000 7.000 -9.000 20.000 7.000 -10.000
0 NOFILE
0 FILE 4-4disc.dat
0 Disc 1.0
0 Name:  4-4disc.dat
0 Author:  James Jessiman
3 -1 0.000 0.000 0.000 1.000 0.000 0.000 0.924 0.000 0.383
3 -1 0.000 0.000 0.000 0.924 0.000 0.383 0.707 0.000 0.707
3 -1 0.000 0.000 0.000 0.707 0.000 0.707 0.383 0.000 0.924
3 -1 0.000 0.000 0.000 0.383 0.000 0.924 0.000 0.000 1.000
3 -1 0.000 0.000 0.000 0.000 0.000 1.000 -0.383 0.000 0.924
3 -1 0.000 0.000 0.000 -0.383 0.000 0.924 -0.707 0.000 0.707
3 -1 0.000 0.000 0.000 -0.707 0.000 0.707 -0.924 0.000 0.383
3 -1 0.000 0.000 0.000 -0.924 0.000 0.383 -1.000 0.000 0.000
3 -1 0.000 0.000 0.000 -1.000 0.000 0.000 -0.924 0.000 -0.383
3 -1 0.000 0.000 0.000 -0.924 0.000 -0.383 -0.707 0.000 -0.707
3 -1 0.000 0.000 0.000 -0.707 0.000 -0.707 -0.383 0.000 -0.924
3 -1 0.000 0.000 0.000 -0.383 0.000 -0.924 0.000 0.000 -1.000
3 -1 0.000 0.000 0.000 0.000 0.000 -1.000 0.383 0.000 -0.924
3 -1 0.000 0.000 0.000 0.383 0.000 -0.924 0.707 0.000 -0.707
3 -1 0.000 0.000 0.000 0.707 0.000 -0.707 0.924 0.000 -0.383
3 -1 0.000 0.000 0.000 0.924 0.000 -0.383 1.000 0.000 0.000
0 NOFILE
0 FILE 1-4edge.dat
0 Circle 0.25
0 Name:  1-4edge.dat
0 Author:  James Jessiman
2 -2 1.000 0.000 0.000 0.924 0.000 0.383
2 -2 0.924 0.000 0.383 0.707 0.000 0.707
2 -2 0.707 0.000 0.707 0.383 0.000 0.924
2 -2 0.383 0.000 0.924 0.000 0.000 1.000
0 NOFILE
0 FILE 1-4cyli.dat
0 Cylinder 0.25
0 Name:  1-4cyli.dat
0 Author:  James Jessiman
4 -1 1.000 1.000 0.000 0.924 1.000 0.383 0.924 0.000 0.383 1.000 0.000 0.000
5 -2 1.000 0.000 0.000 1.000 1.000 0.000
4 -1 0.924 1.000 0.383 0.707 1.000 0.707 0.707 0.000 0.707 0.924 0.000 0.383
5 -2 0.924 0.000 0.383 0.924 1.000 0.383
4 -1 0.707 1.000 0.707 0.383 1.000 0.924 0.383 0.000 0.924 0.707 0.000 0.707
5 -2 0.707 0.000 0.707 0.707 1.000 0.707
4 -1 0.383 1.000 0.924 0.000 1.000 1.000 0.000 0.000 1.000 0.383 0.000 0.924
5 -2 0.383 0.000 0.924 0.383 1.000 0.924
5 -2 0.000 0.000 1.000 0.000 1.000 1.000
0 NOFILE
0 FILE stud2a.dat
0 Stud Open without Base Edges
0 Name:  stud2a.dat
0 Author:  James Jessiman
1 -1 0.000000 -4.000000 0.000000 4.000000 0.000000 0.000000 0.000000 1.000000 0.000000 0.000000 0.000000 4.000000 4-4edge.dat
1 -1 0.000000 -4.000000 0.000000 6.000000 0.000000 0.000000 0.000000 1.000000 0.000000 0.000000 0.000000 6.000000 4-4edge.dat
1 -1 0.000000 -4.000000 0.000000 4.000000 0.000000 0.000000 0.000000 4.000000 0.000000 0.000000 0.000000 4.000000 4-4cyli.dat
1 -1 0.000000 -4.000000 0.000000 6.000000 0.000000 0.000000 0.000000 4.000000 0.000000 0.000000 0.000000 6.000000 4-4cyli.dat
1 -1 0.000000 -4.000000 0.000000 2.000000 0.000000 0.000000 0.000000 1.000000 0.000000 0.000000 0.000000 2.000000 4-4ring2.dat
0 NOFILE
0 FILE box4.dat
0 Box with 4 Faces (2 Parallel Pairs) and All Edges
0 Name:  box4.dat
0 Author:  James Jessiman
2 -2 1.000 1.000 1.000 -1.000 1.000 1.000
2 -2 -1.000 1.000 1.000 -1.000 1.000 -1.000
2 -2 -1.000 1.000 -1.000 1.000 1.000 -1.000
2 -2 1.000 1.000 -1.000 1.000 1.000 1.000
2 -2 1.000 0.000 1.000 -1.000 0.000 1.000
2 -2 -1.000 0.000 1.000 -1.000 0.000 -1.000
2 -2 -1.000 0.000 -1.000 1.000 0.000 -1.000
2 -2 1.000 0.000 -1.000 1.000 0.000 1.000
2 -2 1.000 0.000 1.000 1.000 1.000 1.000
2 -2 -1.000 0.000 1.000 -1.000 1.000 1.000
2 -2 1.000 0.000 -1.000 1.000 1.000 -1.000
2 -2 -1.000 0.000 -1.000 -1.000 1.000 -1.000
4 -1 -1.000 1.000 1.000 -1.000 0.000 1.000 1.000 0.000 1.000 1.000 1.000 1.000
4 -1 -1.000 1.000 -1.000 -1.000 0.000 -1.000 -1.000 0.000 1.000 -1.000 1.000 1.000
4 -1 1.000 1.000 -1.000 1.000 0.000 -1.000 -1.000 0.000 -1.000 -1.000 1.000 -1.000
4 -1 1.000 1.000 1.000 1.000 0.000 1.000 1.000 0.000 -1.000 1.000 1.000 -1.000
0 NOFILE
0 FILE box4-2p.dat
0 Box with 4 Faces without 2 Parallel Edges
0 Name:  box4-2p.dat
0 Author:  Guy Vivan [guyvivan]
2 -2 1.000 1.000 1.000 -1.000 1.000 1.000
2 -2 -1.000 1.000 1.000 -1.000 1.000 -1.000
2 -2 -1.000 1.000 -1.000 1.000 1.000 -1.000
2 -2 1.000 1.000 -1.000 1.000 1.000 1.000
2 -2 -1.000 0.000 1.000 -1.000 0.000 -1.000
2 -2 1.000 0.000 -1.000 1.000 0.000 1.000
2 -2 1.000 0.000 1.000 1.000 1.000 1.000
2 -2 -1.000 0.000 1.000 -1.000 1.000 1.000
2 -2 1.000 0.000 -1.000 1.000 1.000 -1.000
2 -2 -1.000 0.000 -1.000 -1.000 1.000 -1.000
4 -1 1.000 1.000 -1.000 -1.000 1.000 -1.000 -1.000 1.000 1.000 1.000 1.000 1.000
4 -1 -1.000 1.000 1.000 -1.000 0.000 1.000 1.000 0.000 1.000 1.000 1.000 1.000
4 -1 -1.000 1.000 -1.000 -1.000 0.000 -1.000 -1.000 0.000 1.000 -1.000 1.000 1.000
4 -1 1.000 1.000 1.000 1.000 0.000 1.000 1.000 0.000 -1.000 1.000 1.000 -1.000
0 NOFILE
0 FILE rect3.dat
0 Rectangle with 3 Edges
0 Name:  rect3.dat
0 Author:  Mark Kennedy [mkennedy]
2 -2 1.000 0.000 1.000 -1.000 0.000 1.000
2 -2 1.000 0.000 1.000 1.000 0.000 -1.000
2 -2 -1.000 0.000 1.000 -1.000 0.000 -1.000
4 -1 -1.000 0.000 1.000 -1.000 0.000 -1.000 1.000 0.000 -1.000 1.000 0.000 1.000
0 NOFILE
0 FILE rect.dat
0 Rectangle
0 Name:  rect.dat
0 Author:  James Jessiman
2 -2 1.000 0.000 1.000 -1.000 0.000 1.000
2 -2 -1.000 0.000 1.000 -1.000 0.000 -1.000
2 -2 -1.000 0.000 -1.000 1.000 0.000 -1.000
2 -2 1.000 0.000 -1.000 1.000 0.000 1.000
4 -1 -1.000 0.000 1.000 -1.000 0.000 -1.000 1.000 0.000 -1.000 1.000 0.000 1.000
0 NOFILE
0 FILE 1-8chrd.dat
0 Chord 0.125
0 Name:  1-8chrd.dat
0 Author:  Andy Westrate [westrate]
3 -1 0.707 0.000 0.707 1.000 0.000 0.000 0.924 0.000 0.383
0 NOFILE
0 FILE 3-4edge.dat
0 Circle 0.75
0 Name:  3-4edge.dat
0 Author:  James Jessiman
2 -2 1.000 0.000 0.000 0.924 0.000 0.383
2 -2 0.924 0.000 0.383 0.707 0.000 0.707
2 -2 0.707 0.000 0.707 0.383 0.000 0.924
2 -2 0.383 0.000 0.924 0.000 0.000 1.000
2 -2 0.000 0.000 1.000 -0.383 0.000 0.924
2 -2 -0.383 0.000 0.924 -0.707 0.000 0.707
2 -2 -0.707 0.000 0.707 -0.924 0.000 0.383
2 -2 -0.924 0.000 0.383 -1.000 0.000 0.000
2 -2 -1.000 0.000 0.000 -0.924 0.000 -0.383
2 -2 -0.924 0.000 -0.383 -0.707 0.000 -0.707
2 -2 -0.707 0.000 -0.707 -0.383 0.000 -0.924
2 -2 -0.383 0.000 -0.924 0.000 0.000 -1.000
0 NOFILE
0 FILE 1-4ring2.dat
0 Ring 2 x 0.25
0 Name:  1-4ring2.dat
0 Author:  Franklin W. Cain [fwcain]
4 -1 3.000 0.000 0.000 2.772 0.000 1.148 1.848 0.000 0.765 2.000 0.000 0.000
4 -1 2.772 0.000 1.148 2.121 0.000 2.121 1.414 0.000 1.414 1.848 0.000 0.765
4 -1 2.121 0.000 2.121 1.148 0.000 2.772 0.765 0.000 1.848 1.414 0.000 1.414
4 -1 1.148 0.000 2.772 0.000 0.000 3.000 0.000 0.000 2.000 0.765 0.000 1.848
0 NOFILE
0 FILE 3-4cyli.dat
0 Cylinder 0.75
0 Name:  3-4cyli.dat
0 Author:  James Jessiman
4 -1 0.924 1.000 0.383 0.924 0.000 0.383 1.000 0.000 0.000 1.000 1.000 0.000
4 -1 0.707 1.000 0.707 0.707 0.000 0.707 0.924 0.000 0.383 0.924 1.000 0.383
4 -1 0.383 1.000 0.924 0.383 0.000 0.924 0.707 0.000 0.707 0.707 1.000 0.707
4 -1 0.000 1.000 1.000 0.000 0.000 1.000 0.383 0.000 0.924 0.383 1.000 0.924
4 -1 -0.383 1.000 0.924 -0.383 0.000 0.924 0.000 0.000 1.000 0.000 1.000 1.000
4 -1 -0.707 1.000 0.707 -0.707 0.000 0.707 -0.383 0.000 0.924 -0.383 1.000 0.924
4 -1 -0.924 1.000 0.383 -0.924 0.000 0.383 -0.707 0.000 0.707 -0.707 1.000 0.707
4 -1 -1.000 1.000 0.000 -1.000 0.000 0.000 -0.924 0.000 0.383 -0.924 1.000 0.383
4 -1 -0.924 1.000 -0.383 -0.924 0.000 -0.383 -1.000 0.000 0.000 -1.000 1.000 0.000
4 -1 -0.707 1.000 -0.707 -0.707 0.000 -0.707 -0.924 0.000 -0.383 -0.924 1.000 -0.383
4 -1 -0.383 1.000 -0.924 -0.383 0.000 -0.924 -0.707 0.000 -0.707 -0.707 1.000 -0.707
4 -1 0.000 1.000 -1.000 0.000 0.000 -1.000 -0.383 0.000 -0.924 -0.383 1.000 -0.924
5 -2 1.000 1.000 0.000 1.000 0.000 0.000
5 -2 0.924 1.000 0.383 0.924 0.000 0.383
5 -2 0.707 1.000 0.707 0.707 0.000 0.707
5 -2 0.383 1.000 0.924 0.383 0.000 0.924
5 -2 0.000 1.000 1.000 0.000 0.000 1.000
5 -2 -0.383 1.000 0.924 -0.383 0.000 0.924
5 -2 -0.707 1.000 0.707 -0.707 0.000 0.707
5 -2 -0.924 1.000 0.383 -0.924 0.000 0.383
5 -2 -1.000 1.000 0.000 -1.000 0.000 0.000
5 -2 -0.924 1.000 -0.383 -0.924 0.000 -0.383
5 -2 -0.707 1.000 -0.707 -0.707 0.000 -0.707
5 -2 -0.383 1.000 -0.924 -0.383 0.000 -0.924
5 -2 0.000 1.000 -1.000 0.000 0.000 -1.000
0 NOFILE
0 FILE stud4.dat
0 Stud Tube Open
0 Name:  stud4.dat
0 Author:  James Jessiman
1 -1 0.000000 -4.000000 0.000000 6.000000 0.000000 0.000000 0.000000 1.000000 0.000000 0.000000 0.000000 6.000000 4-4edge.dat
1 -1 0.000000 -4.000000 0.000000 8.000000 0.000000 0.000000 0.000000 1.000000 0.000000 0.000000 0.000000 8.000000 4-4edge.dat
1 -1 0.000000 0.000000 0.000000 6.000000 0.000000 0.000000 0.000000 1.000000 0.000000 0.000000 0.000000 6.000000 4-4edge.dat
1 -1 0.000000 0.000000 0.000000 8.000000 0.000000 0.000000 0.000000 1.000000 0.000000 0.000000 0.000000 8.000000 4-4edge.dat
1 -1 0.000000 -4.000000 0.000000 6.000000 0.000000 0.000000 0.000000 4.000000 0.000000 0.000000 0.000000 6.000000 4-4cyli.dat
1 -1 0.000000 -4.000000 0.000000 8.000000 0.000000 0.000000 0.000000 4.000000 0.000000 0.000000 0.000000 8.000000 4-4cyli.dat
1 -1 0.000000 -4.000000 0.000000 2.000000 0.000000 0.000000 0.000000 1.000000 0.000000 0.000000 0.000000 2.000000 4-4ring3.dat
0 NOFILE